<?xml version="1.0" encoding="UTF-8"?>
<svg id="Ebene_1" data-name="Ebene 1" xmlns="http://www.w3.org/2000/svg" viewBox="0 0 1963.33 1931.8">
  <defs>
    <style>
      .cls-1 {
        fill: #bfabff;
      }
    </style>
  </defs>
  <path class="cls-1" d="M1311.51,312.64h0s0,0,0,0c339.84-242.43,723.28,238.39,411.31,515.76h0s0,0,0,0c401.42,114.54,264.57,714.12-146.79,643.14h0s0,0,0,0c160.73,385.26-393.36,652.1-594.35,286.23h0s0,0,0,0c-200.99,365.87-755.09,99.03-594.35-286.23h0s0,0,0,0C-24.06,1542.52-160.91,942.95,240.51,828.41h0s0,0,0,0C-71.46,551.03,311.98,70.21,651.82,312.64h0s0,0,0,0c22.34-416.85,637.34-416.85,659.68,0Z"/>
</svg>