<?xml version="1.0" encoding="UTF-8"?>
<svg id="Ebene_1" data-name="Ebene 1" xmlns="http://www.w3.org/2000/svg" viewBox="0 0 1985.75 1953.02">
  <defs>
    <style>
      .cls-1 {
        fill: #1320f7;
      }
    </style>
  </defs>
  <path class="cls-1" d="M1310.78,301.85l2.22,42.79,34.84-24.94c327.68-234.62,698.08,229.85,396.43,497.1l-32.07,28.41,41.22,11.68c387.74,109.9,255.54,689.09-141.48,619.88l-42.21-7.36,16.57,39.51c155.82,371.67-379.43,629.43-572.85,275.87l-20.56-37.59-20.56,37.59c-193.43,353.56-728.68,95.8-572.85-275.87l16.57-39.51-42.21,7.36C-23.21,1545.99-155.41,966.8,232.33,856.9l41.22-11.68-32.07-28.41C-60.17,549.55,310.23,85.08,637.91,319.7l34.84,24.94,2.22-42.79c20.87-402.47,614.95-402.47,635.82,0Z"/>
</svg>