<?xml version="1.0" encoding="utf-8"?>
<!-- Generator: Adobe Illustrator 26.5.0, SVG Export Plug-In . SVG Version: 6.00 Build 0)  -->
<svg version="1.1" id="Ebene_1" xmlns="http://www.w3.org/2000/svg" xmlns:xlink="http://www.w3.org/1999/xlink" x="0px" y="0px"
	 viewBox="0 0 392.44 146.59" enable-background="new 0 0 392.44 146.59" xml:space="preserve">
<g id="Bildmarke">
	<g>
		<path d="M52.94,143.71c6.47,1.87,13.29,2.89,20.36,2.89c40.48,0,73.3-32.82,73.3-73.3c0-1.21-0.03-2.41-0.09-3.6
			C116.82,108.77,82.57,131.03,52.94,143.71z"/>
		<path d="M38.66,32.3c0,0,32.54,0.13,35.17,1.23C69.56,83,42.66,111.05,21.92,125.56c0.97,0.95,1.97,1.87,2.99,2.77
			C85.58,88.04,83.56,18.34,83.56,18.34s31.35,7.62,34.6,9.8c-17.22,61.31-54.63,91.98-84.02,107.1c1.65,1.04,3.33,2.02,5.06,2.93
			c64.71-31.54,83.91-98.32,87.74-114.8C113.56,9,94.48,0,73.3,0C32.82,0,0,32.82,0,73.3c0,17.52,6.15,33.59,16.4,46.2
			C53.55,82.01,38.66,32.3,38.66,32.3z"/>
	</g>
</g>
<g id="Typo">
	<path d="M185.19,46.27l-15.38-19.4v19.4h-5.34v-29.4h4.17l15.38,19.4v-19.4h5.34v29.4H185.19z"/>
	<path d="M209.24,47.1c-9.02,0-16.02-6.52-16.02-15.53c0-9.01,7.01-15.53,16.02-15.53c8.97,0,15.87,6.52,15.87,15.53
		C225.11,40.59,218.21,47.1,209.24,47.1z M209.24,20.79c-5.88,0-9.75,4.41-9.75,10.78c0,6.37,3.87,10.78,9.75,10.78
		c5.78,0,9.6-4.41,9.6-10.78C218.84,25.2,215.02,20.79,209.24,20.79z"/>
	<path d="M253.33,46.27h-6.57l-8.13-11.71h-3.67v11.71h-5.98v-29.4h11.56c6.96,0,9.95,4.12,9.95,8.87c0,3.97-2.11,7.1-5.88,8.18
		L253.33,46.27z M234.95,30.35h4.61c3.72,0,5.05-1.96,5.05-4.56c0-2.65-1.32-4.65-5.05-4.65h-4.61V30.35z"/>
	<path d="M268.57,21.53v24.74h-5.98V21.53h-9.95v-4.65h25.87v4.65H268.57z"/>
	<path d="M300.62,46.27V33.29h-13.87v12.98h-5.98v-29.4h5.98v11.37h13.87V16.87h5.98v29.4H300.62z"/>
	<path d="M312.05,46.27v-29.4h19.16v4.65h-13.18v6.91h10.73v4.66h-10.73v8.53h13.18v4.65H312.05z"/>
	<path d="M359.82,46.27h-6.57l-8.13-11.71h-3.67v11.71h-5.98v-29.4h11.56c6.96,0,9.95,4.12,9.95,8.87c0,3.97-2.11,7.1-5.88,8.18
		L359.82,46.27z M341.44,30.35h4.61c3.72,0,5.05-1.96,5.05-4.56c0-2.65-1.32-4.65-5.05-4.65h-4.61V30.35z"/>
	<path d="M382.95,46.27l-15.38-19.4v19.4h-5.34v-29.4h4.17l15.38,19.4v-19.4h5.34v29.4H382.95z"/>
	<path d="M170.44,63.53v7.1h10.39v4.61h-10.39v13.03h-5.98v-29.4h18.81v4.65H170.44z"/>
	<path d="M185.56,88.27v-29.4h5.98v29.4H185.56z"/>
	<path d="M208.8,88.27H196.9v-29.4h11.42c6.32,0,8.87,3.48,8.87,7.69c0,2.25-1.47,4.61-3.14,5.78c2.89,1.27,4.7,4.21,4.7,7.3
		C218.75,84.4,215.86,88.27,208.8,88.27z M202.87,70.68h4.46c2.99,0,4.21-1.67,4.21-3.82c0-2.16-1.22-3.82-4.21-3.82h-4.46V70.68z
		 M207.77,74.85h-4.9v9.26h4.9c3.72,0,5.19-2.01,5.19-4.65S211.5,74.85,207.77,74.85z"/>
	<path d="M222.52,88.27v-29.4h19.16v4.65H228.5v6.91h10.73v4.66H228.5v8.53h13.18v4.65H222.52z"/>
	<path d="M270.29,88.27h-6.57l-8.13-11.71h-3.67v11.71h-5.98v-29.4h11.56c6.96,0,9.95,4.12,9.95,8.87c0,3.97-2.11,7.1-5.88,8.18
		L270.29,88.27z M251.92,72.35h4.61c3.72,0,5.05-1.96,5.05-4.56c0-2.65-1.32-4.65-5.05-4.65h-4.61V72.35z"/>
	<path d="M184.31,130.27v-12.98h-13.87v12.98h-5.98v-29.4h5.98v11.37h13.87v-11.37h5.98v29.4H184.31z"/>
	<path d="M210.15,131.1c-9.02,0-16.02-6.52-16.02-15.53c0-9.01,7.01-15.53,16.02-15.53c8.97,0,15.87,6.52,15.87,15.53
		C226.02,124.59,219.12,131.1,210.15,131.1z M210.15,104.79c-5.88,0-9.75,4.41-9.75,10.78c0,6.37,3.87,10.78,9.75,10.78
		c5.78,0,9.6-4.41,9.6-10.78C219.75,109.2,215.93,104.79,210.15,104.79z"/>
	<path d="M229.89,130.27v-29.4h5.98v24.74h13.18v4.65H229.89z"/>
	<path d="M261.67,130.27h-10.34v-29.4h10.34c11.76,0,16.71,6.61,16.71,14.7C278.38,123.66,273.43,130.27,261.67,130.27z
		 M261.38,105.68h-4.07v19.79h4.07c8.04,0,10.88-4.02,10.88-9.9C272.25,109.69,269.41,105.68,261.38,105.68z"/>
	<path d="M282.29,130.27v-29.4h5.98v29.4H282.29z"/>
	<path d="M314.35,130.27l-15.38-19.4v19.4h-5.34v-29.4h4.17l15.38,19.4v-19.4h5.34v29.4H314.35z"/>
	<path d="M338,131.1c-8.48,0-15.63-6.03-15.63-15.53c0-9.5,7.45-15.33,16.02-15.33c3.87,0,7.99,1.13,10.44,2.99v5.44
		c-2.45-2.06-5.49-3.63-9.85-3.63c-6.12,0-10.39,4.02-10.39,10.78c0,6.61,4.17,10.78,10.04,10.78c2.25,0,4.16-0.44,5.68-1.22v-5.73
		h-5.19v-4.41h10.93v12.98C348.39,128.9,343.79,131.1,338,131.1z"/>
</g>
</svg>
