<?xml version="1.0" encoding="UTF-8"?>
<svg id="Ebene_1" data-name="Ebene 1" xmlns="http://www.w3.org/2000/svg" viewBox="0 0 99.08 78.79">
  <defs>
    <style>
      .cls-1 {
        fill: #bfacff;
      }
    </style>
  </defs>
  <path class="cls-1" d="M39.76.15c10.87-.38,21.75,0,32.6.69,1.14.1,2.3.09,3.42.33.61.15,1.27.38,1.62.93.32.6.33,1.3.42,1.97.26,3.26.33,6.53.58,9.78-.47.06-.94-.01-1.41-.03-8.37-.43-16.75-.79-25.13-.8-4.34.01-8.69-.03-13.03.18-1.05.15-2.24.51-2.85,1.44,3.28.58,6.56,1.21,9.84,1.81,10.87,2.04,21.76,4.03,32.63,6.06,0,2.06,0,4.12,0,6.19-6.11-1.01-12.22-2.1-18.33-3.15-13.15-2.27-26.29-4.56-39.44-6.81.03-2.29.12-4.58.17-6.87.08-1.81.03-3.65.44-5.43.28-1.26.79-2.52,1.74-3.42,1.64-1.63,4.02-2.09,6.23-2.31,3.49-.32,6.99-.43,10.49-.56h0ZM20.62,21.76c18.83,3.48,37.66,7.01,56.49,10.5.41.1.85.11,1.25.26l.05.11c-.1,3.09-.16,6.18-.27,9.27-.07,1.91-.27,3.9-1.25,5.58-1.05,1.74-3.01,2.7-4.95,3.06-2.86.54-5.78.57-8.67.73-12.45.57-24.93.25-37.36-.6-.99-.07-2-.09-2.97-.36-.5-.16-1.02-.41-1.3-.87-.3-.61-.32-1.3-.4-1.96-.27-3.6-.41-7.22-.6-10.82,6.41.41,12.84.64,19.26.78,6.2.1,12.41.1,18.61.16,1.34.06,2.78-.2,3.8-1.14.15-.17.39-.33.36-.58-2.8-.42-5.58-.94-8.37-1.4-11.23-1.92-22.46-3.82-33.68-5.75-.01-2.32,0-4.64,0-6.96h0Z"/>
  <path class="cls-1" d="M70.59,67.82v4.29h-13.66v-1.21c0-1.87.3-3.11,2.5-3.11h11.16v.03ZM58.59,65.16c-3.59,0-5.25,1.91-5.25,4.99v8.65h3.59v-3.99h13.66v3.96h3.59v-13.61h-15.59ZM78.61,65.16v2.66h8.44v10.95h3.59v-10.95h8.44v-2.66h-20.47ZM30.3,73.53c0,1.91.39,2.6,2.5,2.6h14.99v2.66h-15.83c-3.59,0-5.28-1.63-5.28-4.69v-8.95h21.08v2.66h-17.49v2.66h16.76v2.62h-16.76v.45l.03-.02ZM4.61,69.9c-1.12-.09-1.3-.48-1.3-1.15,0-.6.33-.97,1.18-.97h16.55v-2.63H4.07c-2.41,0-4.07.94-4.07,3.63s1.24,3.63,4.01,3.87l13.42,1.12c1.03.09,1.33.42,1.33,1.18,0,.7-.3,1.15-1.24,1.15H.66v2.66h17.13c2.95,0,4.25-1.18,4.25-3.96,0-2.54-1.18-3.57-4.04-3.81l-13.39-1.09Z"/>
</svg>