<?xml version="1.0" encoding="UTF-8"?>
<svg xmlns="http://www.w3.org/2000/svg" xmlns:xlink="http://www.w3.org/1999/xlink" width="612" height="792" viewBox="0 0 612 792">
<defs>
<clipPath id="clip-0">
<path clip-rule="nonzero" d="M 111 311 L 594.539062 311 L 594.539062 364 L 111 364 Z M 111 311 "/>
</clipPath>
<clipPath id="clip-1">
<path clip-rule="nonzero" d="M 111 372 L 594.539062 372 L 594.539062 481 L 111 481 Z M 111 372 "/>
</clipPath>
<clipPath id="clip-2">
<path clip-rule="nonzero" d="M 537 306 L 594.539062 306 L 594.539062 371 L 537 371 Z M 537 306 "/>
</clipPath>
</defs>
<path fill-rule="nonzero" fill="rgb(13.729858%, 13.729858%, 13.729858%)" fill-opacity="1" d="M 611.695312 301.269531 C 611.695312 301.269531 611.695312 489.160156 611.695312 489.160156 C 611.695312 493.667969 608.035156 497.328125 603.527344 497.328125 C 603.527344 497.328125 9.351562 497.328125 9.351562 497.328125 C 4.84375 497.328125 1.183594 493.667969 1.183594 489.160156 C 1.183594 489.160156 1.183594 301.269531 1.183594 301.269531 C 1.183594 296.761719 4.84375 293.101562 9.351562 293.101562 C 9.351562 293.101562 603.527344 293.101562 603.527344 293.101562 C 608.035156 293.101562 611.695312 296.761719 611.695312 301.269531 Z M 611.695312 301.269531 "/>
<path fill-rule="nonzero" fill="rgb(0%, 0%, 0%)" fill-opacity="1" d="M 591.070312 326.9375 C 591.070312 326.9375 591.070312 348.863281 591.070312 348.863281 C 591.070312 354.914062 586.15625 359.824219 580.105469 359.824219 C 580.105469 359.824219 126.273438 359.824219 126.273438 359.824219 C 120.222656 359.824219 115.308594 354.914062 115.308594 348.863281 C 115.308594 348.863281 115.308594 326.9375 115.308594 326.9375 C 115.308594 320.886719 120.222656 315.972656 126.273438 315.972656 C 126.273438 315.972656 580.105469 315.972656 580.105469 315.972656 C 586.15625 315.972656 591.070312 320.886719 591.070312 326.9375 Z M 591.070312 326.9375 "/>
<g clip-path="url(#clip-0)">
<path fill="none" stroke-width="2" stroke-linecap="butt" stroke-linejoin="miter" stroke="rgb(64.709473%, 64.709473%, 64.709473%)" stroke-opacity="1" stroke-miterlimit="4" d="M 650.951174 -29.995826 C 650.951174 -29.995826 650.951174 30.003225 650.951174 30.003225 C 650.951174 46.560953 637.504032 59.997405 620.946304 59.997405 C 620.946304 59.997405 -620.947456 59.997405 -620.947456 59.997405 C -637.505184 59.997405 -650.952326 46.560953 -650.952326 30.003225 C -650.952326 30.003225 -650.952326 -29.995826 -650.952326 -29.995826 C -650.952326 -46.553554 -637.505184 -60.000696 -620.947456 -60.000696 C -620.947456 -60.000696 620.946304 -60.000696 620.946304 -60.000696 C 637.504032 -60.000696 650.951174 -46.553554 650.951174 -29.995826 Z M 650.951174 -29.995826 " transform="matrix(0.365435, 0, 0, 0.365435, 353.189664, 337.899039)"/>
</g>
<path fill-rule="nonzero" fill="rgb(0%, 0%, 0%)" fill-opacity="1" d="M 591.070312 387.964844 C 591.070312 387.964844 591.070312 465.4375 591.070312 465.4375 C 591.070312 471.488281 586.15625 476.398438 580.105469 476.398438 C 580.105469 476.398438 126.273438 476.398438 126.273438 476.398438 C 120.222656 476.398438 115.308594 471.488281 115.308594 465.4375 C 115.308594 465.4375 115.308594 387.964844 115.308594 387.964844 C 115.308594 381.914062 120.222656 377 126.273438 377 C 126.273438 377 580.105469 377 580.105469 377 C 586.15625 377 591.070312 381.914062 591.070312 387.964844 Z M 591.070312 387.964844 "/>
<g clip-path="url(#clip-1)">
<path fill="none" stroke-width="2" stroke-linecap="butt" stroke-linejoin="miter" stroke="rgb(64.709473%, 64.709473%, 64.709473%)" stroke-opacity="1" stroke-miterlimit="4" d="M 650.951174 -105.996833 C 650.951174 -105.996833 650.951174 106.004088 650.951174 106.004088 C 650.951174 122.561816 637.504032 135.998268 620.946304 135.998268 C 620.946304 135.998268 -620.947456 135.998268 -620.947456 135.998268 C -637.505184 135.998268 -650.952326 122.561816 -650.952326 106.004088 C -650.952326 106.004088 -650.952326 -105.996833 -650.952326 -105.996833 C -650.952326 -122.554561 -637.505184 -136.001702 -620.947456 -136.001702 C -620.947456 -136.001702 620.946304 -136.001702 620.946304 -136.001702 C 637.504032 -136.001702 650.951174 -122.554561 650.951174 -105.996833 Z M 650.951174 -105.996833 " transform="matrix(0.365435, 0, 0, 0.365435, 353.189664, 426.699846)"/>
</g>
<path fill-rule="nonzero" fill="rgb(100%, 100%, 100%)" fill-opacity="1" d="M 132.003906 344.476562 C 132.003906 344.476562 132.003906 338.105469 132.003906 338.105469 C 132.003906 338.105469 137.851562 338.105469 137.851562 338.105469 C 137.851562 338.105469 137.851562 336.738281 137.851562 336.738281 C 137.851562 336.738281 132.003906 336.738281 132.003906 336.738281 C 132.003906 336.738281 132.003906 331.796875 132.003906 331.796875 C 132.003906 331.796875 138.875 331.796875 138.875 331.796875 C 138.875 331.796875 138.875 330.40625 138.875 330.40625 C 138.875 330.40625 130.316406 330.40625 130.316406 330.40625 C 130.316406 330.40625 130.316406 344.476562 130.316406 344.476562 C 130.316406 344.476562 132.003906 344.476562 132.003906 344.476562 Z M 132.003906 344.476562 "/>
<path fill-rule="nonzero" fill="rgb(100%, 100%, 100%)" fill-opacity="1" d="M 146.394531 344.183594 C 147 343.828125 147.453125 343.335938 147.761719 342.707031 C 147.761719 342.707031 147.863281 344.476562 147.863281 344.476562 C 147.863281 344.476562 149.390625 344.476562 149.390625 344.476562 C 149.390625 344.476562 149.390625 334.347656 149.390625 334.347656 C 149.390625 334.347656 147.699219 334.347656 147.699219 334.347656 C 147.699219 334.347656 147.699219 339.773438 147.699219 339.773438 C 147.699219 340.523438 147.570312 341.160156 147.308594 341.675781 C 147.046875 342.1875 146.691406 342.582031 146.242188 342.859375 C 145.792969 343.132812 145.289062 343.269531 144.726562 343.269531 C 143.90625 343.269531 143.28125 343.019531 142.835938 342.519531 C 142.394531 342.015625 142.175781 341.253906 142.175781 340.234375 C 142.175781 340.234375 142.175781 334.347656 142.175781 334.347656 C 142.175781 334.347656 140.488281 334.347656 140.488281 334.347656 C 140.488281 334.347656 140.488281 340.417969 140.488281 340.417969 C 140.488281 341.382812 140.644531 342.1875 140.957031 342.828125 C 141.273438 343.472656 141.722656 343.945312 142.304688 344.253906 C 142.886719 344.566406 143.566406 344.71875 144.34375 344.71875 C 145.109375 344.71875 145.792969 344.539062 146.394531 344.183594 Z M 146.394531 344.183594 "/>
<path fill-rule="nonzero" fill="rgb(100%, 100%, 100%)" fill-opacity="1" d="M 153.570312 344.476562 C 153.570312 344.476562 153.570312 330.003906 153.570312 330.003906 C 153.570312 330.003906 151.882812 330.003906 151.882812 330.003906 C 151.882812 330.003906 151.882812 344.476562 151.882812 344.476562 C 151.882812 344.476562 153.570312 344.476562 153.570312 344.476562 Z M 153.570312 344.476562 "/>
<path fill-rule="nonzero" fill="rgb(100%, 100%, 100%)" fill-opacity="1" d="M 157.75 344.476562 C 157.75 344.476562 157.75 330.003906 157.75 330.003906 C 157.75 330.003906 156.0625 330.003906 156.0625 330.003906 C 156.0625 330.003906 156.0625 344.476562 156.0625 344.476562 C 156.0625 344.476562 157.75 344.476562 157.75 344.476562 Z M 157.75 344.476562 "/>
<path fill-rule="nonzero" fill="rgb(100%, 100%, 100%)" fill-opacity="1" d="M 167.074219 331.816406 C 167.074219 331.816406 169.949219 331.816406 169.949219 331.816406 C 171.074219 331.816406 171.878906 332.050781 172.363281 332.527344 C 172.84375 333.003906 173.085938 333.671875 173.085938 334.527344 C 173.085938 335.359375 172.84375 336.019531 172.363281 336.519531 C 171.878906 337.015625 171.074219 337.257812 169.949219 337.257812 C 169.949219 337.257812 167.074219 337.257812 167.074219 337.257812 C 167.074219 337.257812 167.074219 331.816406 167.074219 331.816406 Z M 167.074219 344.476562 C 167.074219 344.476562 167.074219 338.6875 167.074219 338.6875 C 167.074219 338.6875 169.96875 338.6875 169.96875 338.6875 C 171.097656 338.6875 172.015625 338.503906 172.722656 338.125 C 173.433594 337.75 173.960938 337.253906 174.304688 336.628906 C 174.644531 336.007812 174.816406 335.3125 174.816406 334.546875 C 174.816406 333.757812 174.644531 333.054688 174.304688 332.4375 C 173.960938 331.820312 173.429688 331.328125 172.714844 330.960938 C 171.996094 330.589844 171.082031 330.40625 169.96875 330.40625 C 169.96875 330.40625 165.390625 330.40625 165.390625 330.40625 C 165.390625 330.40625 165.390625 344.476562 165.390625 344.476562 C 165.390625 344.476562 167.074219 344.476562 167.074219 344.476562 Z M 167.074219 344.476562 "/>
<path fill-rule="nonzero" fill="rgb(100%, 100%, 100%)" fill-opacity="1" d="M 178.332031 344.476562 C 178.332031 344.476562 178.332031 339.25 178.332031 339.25 C 178.332031 338.609375 178.414062 338.066406 178.585938 337.632812 C 178.753906 337.199219 178.984375 336.855469 179.285156 336.597656 C 179.589844 336.34375 179.933594 336.160156 180.320312 336.046875 C 180.710938 335.933594 181.121094 335.875 181.546875 335.875 C 181.546875 335.875 182.171875 335.875 182.171875 335.875 C 182.171875 335.875 182.171875 334.105469 182.171875 334.105469 C 181.527344 334.105469 180.957031 334.195312 180.453125 334.367188 C 179.949219 334.539062 179.519531 334.789062 179.164062 335.109375 C 178.8125 335.433594 178.519531 335.820312 178.292969 336.277344 C 178.292969 336.277344 178.171875 334.347656 178.171875 334.347656 C 178.171875 334.347656 176.644531 334.347656 176.644531 334.347656 C 176.644531 334.347656 176.644531 344.476562 176.644531 344.476562 C 176.644531 344.476562 178.332031 344.476562 178.332031 344.476562 Z M 178.332031 344.476562 "/>
<path fill-rule="nonzero" fill="rgb(100%, 100%, 100%)" fill-opacity="1" d="M 186.722656 342.839844 C 186.234375 342.550781 185.839844 342.121094 185.535156 341.542969 C 185.238281 340.964844 185.085938 340.257812 185.085938 339.410156 C 185.085938 338.554688 185.238281 337.839844 185.535156 337.269531 C 185.839844 336.699219 186.242188 336.273438 186.742188 335.984375 C 187.246094 335.695312 187.785156 335.554688 188.359375 335.554688 C 188.9375 335.554688 189.46875 335.695312 189.957031 335.984375 C 190.449219 336.273438 190.84375 336.699219 191.144531 337.269531 C 191.445312 337.839844 191.597656 338.554688 191.597656 339.410156 C 191.597656 340.257812 191.441406 340.964844 191.136719 341.542969 C 190.828125 342.121094 190.425781 342.550781 189.929688 342.839844 C 189.433594 343.128906 188.898438 343.269531 188.320312 343.269531 C 187.742188 343.269531 187.214844 343.128906 186.722656 342.839844 Z M 190.875 344.0625 C 191.625 343.628906 192.21875 343.011719 192.664062 342.214844 C 193.105469 341.417969 193.328125 340.484375 193.328125 339.410156 C 193.328125 338.328125 193.109375 337.386719 192.671875 336.597656 C 192.238281 335.808594 191.648438 335.195312 190.90625 334.761719 C 190.160156 334.324219 189.3125 334.105469 188.359375 334.105469 C 187.410156 334.105469 186.554688 334.324219 185.800781 334.761719 C 185.042969 335.195312 184.445312 335.8125 184.007812 336.609375 C 183.574219 337.40625 183.359375 338.34375 183.359375 339.429688 C 183.359375 340.488281 183.570312 341.417969 184 342.214844 C 184.429688 343.011719 185.015625 343.628906 185.765625 344.0625 C 186.519531 344.5 187.371094 344.71875 188.320312 344.71875 C 189.269531 344.71875 190.121094 344.5 190.875 344.0625 Z M 190.875 344.0625 "/>
<path fill-rule="nonzero" fill="rgb(100%, 100%, 100%)" fill-opacity="1" d="M 197.3125 331.867188 C 197.539062 331.644531 197.648438 331.363281 197.648438 331.027344 C 197.648438 330.695312 197.539062 330.425781 197.3125 330.21875 C 197.09375 330.007812 196.824219 329.902344 196.503906 329.902344 C 196.167969 329.902344 195.890625 330.007812 195.667969 330.21875 C 195.445312 330.425781 195.332031 330.695312 195.332031 331.027344 C 195.332031 331.363281 195.445312 331.644531 195.667969 331.867188 C 195.890625 332.085938 196.167969 332.199219 196.503906 332.199219 C 196.824219 332.199219 197.09375 332.085938 197.3125 331.867188 Z M 194.492188 348.898438 C 195.105469 348.898438 195.625 348.800781 196.050781 348.605469 C 196.46875 348.414062 196.789062 348.113281 197.003906 347.703125 C 197.21875 347.292969 197.324219 346.769531 197.324219 346.125 C 197.324219 346.125 197.324219 334.347656 197.324219 334.347656 C 197.324219 334.347656 195.636719 334.347656 195.636719 334.347656 C 195.636719 334.347656 195.636719 346.085938 195.636719 346.085938 C 195.636719 346.582031 195.53125 346.933594 195.316406 347.140625 C 195.101562 347.347656 194.738281 347.453125 194.230469 347.453125 C 194.230469 347.453125 193.445312 347.453125 193.445312 347.453125 C 193.445312 347.453125 193.445312 348.898438 193.445312 348.898438 C 193.445312 348.898438 194.492188 348.898438 194.492188 348.898438 Z M 194.492188 348.898438 "/>
<path fill-rule="nonzero" fill="rgb(100%, 100%, 100%)" fill-opacity="1" d="M 206.5 344.304688 C 207.097656 344.03125 207.597656 343.65625 208 343.167969 C 208.402344 342.691406 208.683594 342.144531 208.839844 341.542969 C 208.839844 341.542969 207.175781 341.542969 207.175781 341.542969 C 206.972656 342.078125 206.640625 342.503906 206.179688 342.816406 C 205.714844 343.132812 205.132812 343.289062 204.421875 343.289062 C 203.855469 343.289062 203.332031 343.148438 202.84375 342.867188 C 202.355469 342.585938 201.960938 342.164062 201.65625 341.601562 C 201.355469 341.039062 201.207031 340.34375 201.207031 339.511719 C 201.207031 339.511719 201.207031 338.949219 201.207031 338.949219 C 201.207031 338.199219 201.351562 337.574219 201.648438 337.070312 C 201.941406 336.570312 202.332031 336.183594 202.820312 335.925781 C 203.3125 335.664062 203.84375 335.53125 204.421875 335.53125 C 205.277344 335.53125 205.988281 335.792969 206.558594 336.316406 C 207.128906 336.839844 207.433594 337.5625 207.476562 338.488281 C 207.476562 338.488281 200.824219 338.488281 200.824219 338.488281 C 200.824219 338.488281 200.824219 339.796875 200.824219 339.796875 C 200.824219 339.796875 209.101562 339.796875 209.101562 339.796875 C 209.117188 339.605469 209.125 339.4375 209.125 339.292969 C 209.125 339.144531 209.125 339.003906 209.125 338.867188 C 209.125 338.011719 208.9375 337.222656 208.570312 336.507812 C 208.199219 335.789062 207.675781 335.214844 206.984375 334.765625 C 206.292969 334.324219 205.453125 334.105469 204.457031 334.105469 C 203.496094 334.105469 202.640625 334.324219 201.898438 334.765625 C 201.15625 335.214844 200.578125 335.828125 200.167969 336.621094 C 199.757812 337.410156 199.558594 338.339844 199.558594 339.410156 C 199.558594 340.472656 199.761719 341.398438 200.179688 342.195312 C 200.597656 342.992188 201.167969 343.609375 201.898438 344.054688 C 202.628906 344.5 203.46875 344.71875 204.421875 344.71875 C 205.210938 344.71875 205.90625 344.578125 206.5 344.304688 Z M 206.5 344.304688 "/>
<path fill-rule="nonzero" fill="rgb(100%, 100%, 100%)" fill-opacity="1" d="M 218.660156 343.765625 C 219.472656 343.128906 219.984375 342.300781 220.199219 341.28125 C 220.199219 341.28125 218.472656 341.28125 218.472656 341.28125 C 218.375 341.695312 218.195312 342.054688 217.925781 342.355469 C 217.660156 342.65625 217.328125 342.886719 216.933594 343.046875 C 216.539062 343.207031 216.101562 343.289062 215.636719 343.289062 C 215.207031 343.289062 214.796875 343.207031 214.398438 343.039062 C 214.003906 342.871094 213.660156 342.628906 213.363281 342.304688 C 213.070312 341.984375 212.835938 341.578125 212.660156 341.089844 C 212.484375 340.597656 212.402344 340.039062 212.402344 339.410156 C 212.402344 338.554688 212.546875 337.839844 212.84375 337.269531 C 213.136719 336.699219 213.53125 336.273438 214.027344 335.984375 C 214.523438 335.695312 215.058594 335.554688 215.636719 335.554688 C 216.34375 335.554688 216.960938 335.726562 217.484375 336.074219 C 218.007812 336.421875 218.335938 336.914062 218.472656 337.539062 C 218.472656 337.539062 220.199219 337.539062 220.199219 337.539062 C 219.984375 336.496094 219.476562 335.664062 218.671875 335.042969 C 217.867188 334.417969 216.863281 334.105469 215.65625 334.105469 C 214.703125 334.105469 213.847656 334.324219 213.09375 334.765625 C 212.335938 335.214844 211.742188 335.832031 211.316406 336.628906 C 210.886719 337.425781 210.671875 338.359375 210.671875 339.429688 C 210.671875 340.476562 210.886719 341.398438 211.316406 342.195312 C 211.742188 342.992188 212.335938 343.609375 213.09375 344.054688 C 213.847656 344.5 214.703125 344.71875 215.65625 344.71875 C 216.847656 344.71875 217.851562 344.398438 218.660156 343.765625 Z M 218.660156 343.765625 "/>
<path fill-rule="nonzero" fill="rgb(100%, 100%, 100%)" fill-opacity="1" d="M 227.835938 344.476562 C 227.835938 344.476562 227.835938 343.03125 227.835938 343.03125 C 227.835938 343.03125 226.75 343.03125 226.75 343.03125 C 226.105469 343.03125 225.65625 342.921875 225.40625 342.695312 C 225.148438 342.476562 225.023438 342.050781 225.023438 341.421875 C 225.023438 341.421875 225.023438 335.773438 225.023438 335.773438 C 225.023438 335.773438 227.957031 335.773438 227.957031 335.773438 C 227.957031 335.773438 227.957031 334.347656 227.957031 334.347656 C 227.957031 334.347656 225.023438 334.347656 225.023438 334.347656 C 225.023438 334.347656 225.023438 331.894531 225.023438 331.894531 C 225.023438 331.894531 223.554688 331.894531 223.554688 331.894531 C 223.554688 331.894531 223.332031 334.347656 223.332031 334.347656 C 223.332031 334.347656 221.566406 334.347656 221.566406 334.347656 C 221.566406 334.347656 221.566406 335.773438 221.566406 335.773438 C 221.566406 335.773438 223.332031 335.773438 223.332031 335.773438 C 223.332031 335.773438 223.332031 341.421875 223.332031 341.421875 C 223.332031 342.1875 223.449219 342.792969 223.683594 343.242188 C 223.917969 343.691406 224.257812 344.007812 224.699219 344.195312 C 225.140625 344.382812 225.664062 344.476562 226.269531 344.476562 C 226.269531 344.476562 227.835938 344.476562 227.835938 344.476562 Z M 227.835938 344.476562 "/>
<path fill-rule="nonzero" fill="rgb(35.688782%, 30.198669%, 95.289612%)" fill-opacity="1" d="M 103.78125 324.5625 C 103.78125 324.5625 103.78125 351.238281 103.78125 351.238281 C 103.78125 357.289062 98.867188 362.199219 92.816406 362.199219 C 92.816406 362.199219 33.25 362.199219 33.25 362.199219 C 27.199219 362.199219 22.289062 357.289062 22.289062 351.238281 C 22.289062 351.238281 22.289062 324.5625 22.289062 324.5625 C 22.289062 318.511719 27.199219 313.597656 33.25 313.597656 C 33.25 313.597656 92.816406 313.597656 92.816406 313.597656 C 98.867188 313.597656 103.78125 318.511719 103.78125 324.5625 Z M 103.78125 324.5625 "/>
<path fill-rule="nonzero" fill="rgb(100%, 100%, 100%)" fill-opacity="1" d="M 68.855469 339.160156 C 68.855469 339.160156 68.855469 337.601562 68.855469 337.601562 C 68.855469 337.601562 58.835938 337.601562 58.835938 337.601562 C 58.835938 337.601562 58.835938 339.160156 58.835938 339.160156 C 58.835938 339.160156 68.855469 339.160156 68.855469 339.160156 Z M 64.667969 343.171875 C 64.667969 343.171875 64.667969 333.613281 64.667969 333.613281 C 64.667969 333.613281 63.023438 333.613281 63.023438 333.613281 C 63.023438 333.613281 63.023438 343.171875 63.023438 343.171875 C 63.023438 343.171875 64.667969 343.171875 64.667969 343.171875 Z M 64.667969 343.171875 "/>
<path fill-rule="nonzero" fill="rgb(0%, 0%, 0%)" fill-opacity="1" d="M 103.78125 387.414062 C 103.78125 387.414062 103.78125 414.09375 103.78125 414.09375 C 103.78125 420.144531 98.867188 425.054688 92.816406 425.054688 C 92.816406 425.054688 33.25 425.054688 33.25 425.054688 C 27.199219 425.054688 22.289062 420.144531 22.289062 414.09375 C 22.289062 414.09375 22.289062 387.414062 22.289062 387.414062 C 22.289062 381.363281 27.199219 376.453125 33.25 376.453125 C 33.25 376.453125 92.816406 376.453125 92.816406 376.453125 C 98.867188 376.453125 103.78125 381.363281 103.78125 387.414062 Z M 103.78125 387.414062 "/>
<g clip-path="url(#clip-2)">
<path fill="none" stroke-width="42.240002" stroke-linecap="butt" stroke-linejoin="miter" stroke="rgb(100%, 100%, 100%)" stroke-opacity="1" stroke-miterlimit="10" d="M -80.080239 -160.12777 C -80.080239 -160.12777 80.094837 -0.0349195 80.094837 -0.0349195 C 80.094837 -0.0349195 -80.080239 160.140157 -80.080239 160.140157 " transform="matrix(0, 0.0475066, -0.0475066, 0, 573.795216, 338.441059)"/>
</g>
<path fill-rule="nonzero" fill="rgb(100%, 100%, 100%)" fill-opacity="1" d="M 53.5 400.328125 C 53.5 400.328125 53.5 398.941406 53.5 398.941406 C 53.5 398.941406 45.460938 398.941406 45.460938 398.941406 C 45.460938 398.941406 45.460938 400.328125 45.460938 400.328125 C 45.460938 400.328125 53.5 400.328125 53.5 400.328125 Z M 45.777344 406.796875 C 45.777344 406.796875 45.777344 392.730469 45.777344 392.730469 C 45.777344 392.730469 44.09375 392.730469 44.09375 392.730469 C 44.09375 392.730469 44.09375 406.796875 44.09375 406.796875 C 44.09375 406.796875 45.777344 406.796875 45.777344 406.796875 Z M 54.765625 406.796875 C 54.765625 406.796875 54.765625 392.730469 54.765625 392.730469 C 54.765625 392.730469 53.078125 392.730469 53.078125 392.730469 C 53.078125 392.730469 53.078125 406.796875 53.078125 406.796875 C 53.078125 406.796875 54.765625 406.796875 54.765625 406.796875 Z M 54.765625 406.796875 "/>
<path fill-rule="nonzero" fill="rgb(100%, 100%, 100%)" fill-opacity="1" d="M 63.902344 406.625 C 64.496094 406.351562 64.996094 405.976562 65.398438 405.492188 C 65.800781 405.011719 66.082031 404.46875 66.238281 403.863281 C 66.238281 403.863281 64.574219 403.863281 64.574219 403.863281 C 64.371094 404.402344 64.039062 404.824219 63.578125 405.140625 C 63.113281 405.453125 62.53125 405.609375 61.820312 405.609375 C 61.253906 405.609375 60.734375 405.472656 60.242188 405.191406 C 59.753906 404.910156 59.359375 404.484375 59.054688 403.921875 C 58.753906 403.359375 58.605469 402.664062 58.605469 401.832031 C 58.605469 401.832031 58.605469 401.269531 58.605469 401.269531 C 58.605469 400.519531 58.75 399.894531 59.046875 399.390625 C 59.339844 398.890625 59.730469 398.507812 60.222656 398.246094 C 60.710938 397.984375 61.246094 397.851562 61.820312 397.851562 C 62.675781 397.851562 63.390625 398.117188 63.960938 398.636719 C 64.53125 399.160156 64.832031 399.882812 64.875 400.808594 C 64.875 400.808594 58.222656 400.808594 58.222656 400.808594 C 58.222656 400.808594 58.222656 402.117188 58.222656 402.117188 C 58.222656 402.117188 66.503906 402.117188 66.503906 402.117188 C 66.515625 401.925781 66.523438 401.757812 66.523438 401.613281 C 66.523438 401.46875 66.523438 401.324219 66.523438 401.1875 C 66.523438 400.335938 66.339844 399.542969 65.96875 398.828125 C 65.601562 398.113281 65.074219 397.535156 64.382812 397.089844 C 63.691406 396.648438 62.851562 396.425781 61.859375 396.425781 C 60.898438 396.425781 60.042969 396.648438 59.296875 397.089844 C 58.554688 397.535156 57.976562 398.148438 57.566406 398.941406 C 57.160156 399.730469 56.957031 400.664062 56.957031 401.734375 C 56.957031 402.792969 57.164062 403.722656 57.578125 404.519531 C 57.996094 405.316406 58.566406 405.933594 59.296875 406.378906 C 60.027344 406.820312 60.867188 407.039062 61.820312 407.039062 C 62.609375 407.039062 63.304688 406.902344 63.902344 406.625 Z M 63.902344 406.625 "/>
<path fill-rule="nonzero" fill="rgb(100%, 100%, 100%)" fill-opacity="1" d="M 70.179688 406.796875 C 70.179688 406.796875 70.179688 392.328125 70.179688 392.328125 C 70.179688 392.328125 68.492188 392.328125 68.492188 392.328125 C 68.492188 392.328125 68.492188 406.796875 68.492188 406.796875 C 68.492188 406.796875 70.179688 406.796875 70.179688 406.796875 Z M 70.179688 406.796875 "/>
<path fill-rule="nonzero" fill="rgb(100%, 100%, 100%)" fill-opacity="1" d="M 76.007812 405.089844 C 75.5 404.765625 75.105469 404.324219 74.824219 403.753906 C 74.539062 403.183594 74.402344 402.519531 74.402344 401.75 C 74.402344 400.976562 74.539062 400.300781 74.824219 399.722656 C 75.105469 399.144531 75.5 398.695312 76.007812 398.375 C 76.515625 398.054688 77.109375 397.894531 77.777344 397.894531 C 78.4375 397.894531 79.015625 398.054688 79.523438 398.375 C 80.035156 398.695312 80.433594 399.144531 80.722656 399.722656 C 81.011719 400.300781 81.15625 400.976562 81.15625 401.75 C 81.15625 402.519531 81.011719 403.183594 80.722656 403.753906 C 80.433594 404.324219 80.035156 404.765625 79.523438 405.089844 C 79.015625 405.410156 78.4375 405.570312 77.777344 405.570312 C 77.109375 405.570312 76.515625 405.410156 76.007812 405.089844 Z M 74.363281 411.21875 C 74.363281 411.21875 74.363281 405.128906 74.363281 405.128906 C 74.699219 405.730469 75.175781 406.203125 75.796875 406.539062 C 76.421875 406.871094 77.140625 407.039062 77.957031 407.039062 C 78.953125 407.039062 79.8125 406.8125 80.550781 406.355469 C 81.289062 405.898438 81.859375 405.273438 82.269531 404.476562 C 82.679688 403.679688 82.882812 402.773438 82.882812 401.75 C 82.882812 400.722656 82.679688 399.808594 82.269531 399.011719 C 81.859375 398.214844 81.292969 397.582031 80.5625 397.121094 C 79.832031 396.65625 78.96875 396.425781 77.980469 396.425781 C 77.363281 396.425781 76.824219 396.519531 76.359375 396.699219 C 75.898438 396.878906 75.5 397.113281 75.164062 397.402344 C 74.828125 397.691406 74.554688 397.996094 74.34375 398.316406 C 74.34375 398.316406 74.199219 396.667969 74.199219 396.667969 C 74.199219 396.667969 72.671875 396.667969 72.671875 396.667969 C 72.671875 396.667969 72.671875 411.21875 72.671875 411.21875 C 72.671875 411.21875 74.363281 411.21875 74.363281 411.21875 Z M 74.363281 411.21875 "/>
<path fill="none" stroke-width="42.240002" stroke-linecap="butt" stroke-linejoin="miter" stroke="rgb(65.098572%, 65.098572%, 65.098572%)" stroke-opacity="1" stroke-miterlimit="10" d="M -80.09604 -160.133199 C -80.09604 -160.133199 80.079036 -0.0403485 80.079036 -0.0403485 C 80.079036 -0.0403485 -80.09604 160.134728 -80.09604 160.134728 " transform="matrix(0.0475066, 0, 0, 0.0475066, 134.039466, 400.290979)"/>
<path fill-rule="nonzero" fill="rgb(65.098572%, 65.098572%, 65.098572%)" fill-opacity="1" d="M 206.464844 407.515625 C 206.464844 407.515625 206.464844 394.722656 206.464844 394.722656 C 206.464844 394.722656 205.421875 394.722656 205.421875 394.722656 C 205.421875 394.722656 202.71875 395.894531 202.71875 395.894531 C 202.71875 395.894531 202.71875 396.988281 202.71875 396.988281 C 202.71875 396.988281 204.910156 396.441406 204.910156 396.441406 C 204.910156 396.441406 204.910156 407.515625 204.910156 407.515625 C 204.910156 407.515625 206.464844 407.515625 206.464844 407.515625 Z M 206.464844 407.515625 "/>
<path fill-rule="nonzero" fill="rgb(65.098572%, 65.098572%, 65.098572%)" fill-opacity="1" d="M 211.855469 405.753906 C 211.28125 405.332031 210.832031 404.730469 210.5 403.945312 C 210.171875 403.15625 210.007812 402.214844 210.007812 401.121094 C 210.007812 400.023438 210.171875 399.082031 210.5 398.292969 C 210.832031 397.511719 211.28125 396.910156 211.855469 396.496094 C 212.425781 396.082031 213.078125 395.875 213.808594 395.875 C 214.539062 395.875 215.191406 396.082031 215.765625 396.496094 C 216.335938 396.910156 216.789062 397.511719 217.117188 398.292969 C 217.445312 399.082031 217.609375 400.023438 217.609375 401.121094 C 217.609375 402.214844 217.445312 403.15625 217.117188 403.945312 C 216.789062 404.730469 216.335938 405.332031 215.765625 405.753906 C 215.191406 406.171875 214.539062 406.382812 213.808594 406.382812 C 213.078125 406.382812 212.425781 406.171875 211.855469 405.753906 Z M 216.695312 406.902344 C 217.488281 406.347656 218.097656 405.574219 218.53125 404.582031 C 218.964844 403.589844 219.179688 402.433594 219.179688 401.121094 C 219.179688 399.804688 218.964844 398.648438 218.53125 397.65625 C 218.097656 396.664062 217.488281 395.890625 216.695312 395.335938 C 215.902344 394.78125 214.949219 394.503906 213.828125 394.503906 C 212.707031 394.503906 211.742188 394.78125 210.933594 395.335938 C 210.121094 395.890625 209.503906 396.664062 209.078125 397.65625 C 208.648438 398.648438 208.4375 399.804688 208.4375 401.121094 C 208.4375 402.433594 208.648438 403.589844 209.078125 404.582031 C 209.503906 405.574219 210.121094 406.347656 210.933594 406.902344 C 211.742188 407.457031 212.707031 407.734375 213.828125 407.734375 C 214.949219 407.734375 215.902344 407.457031 216.695312 406.902344 Z M 216.695312 406.902344 "/>
<path fill-rule="nonzero" fill="rgb(65.098572%, 65.098572%, 65.098572%)" fill-opacity="1" d="M 227.273438 407.515625 C 227.273438 407.515625 227.273438 401.722656 227.273438 401.722656 C 227.273438 401.722656 232.59375 401.722656 232.59375 401.722656 C 232.59375 401.722656 232.59375 400.480469 232.59375 400.480469 C 232.59375 400.480469 227.273438 400.480469 227.273438 400.480469 C 227.273438 400.480469 227.273438 395.984375 227.273438 395.984375 C 227.273438 395.984375 233.523438 395.984375 233.523438 395.984375 C 233.523438 395.984375 233.523438 394.722656 233.523438 394.722656 C 233.523438 394.722656 225.742188 394.722656 225.742188 394.722656 C 225.742188 394.722656 225.742188 407.515625 225.742188 407.515625 C 225.742188 407.515625 227.273438 407.515625 227.273438 407.515625 Z M 227.273438 407.515625 "/>
<path fill-rule="nonzero" fill="rgb(65.098572%, 65.098572%, 65.098572%)" fill-opacity="1" d="M 238.53125 405.753906 C 237.835938 405.332031 237.296875 404.730469 236.90625 403.945312 C 236.511719 403.15625 236.320312 402.214844 236.320312 401.121094 C 236.320312 400.023438 236.511719 399.082031 236.90625 398.292969 C 237.296875 397.511719 237.835938 396.910156 238.53125 396.496094 C 239.226562 396.082031 240.027344 395.875 240.941406 395.875 C 241.867188 395.875 242.683594 396.082031 243.378906 396.496094 C 244.082031 396.910156 244.621094 397.511719 245.011719 398.292969 C 245.390625 399.082031 245.582031 400.023438 245.582031 401.121094 C 245.582031 402.214844 245.390625 403.15625 245.011719 403.945312 C 244.621094 404.730469 244.082031 405.332031 243.378906 405.753906 C 242.683594 406.171875 241.867188 406.382812 240.941406 406.382812 C 240.027344 406.382812 239.226562 406.171875 238.53125 405.753906 Z M 244.203125 406.902344 C 245.136719 406.347656 245.859375 405.574219 246.375 404.582031 C 246.894531 403.589844 247.15625 402.433594 247.15625 401.121094 C 247.15625 399.816406 246.894531 398.667969 246.375 397.675781 C 245.859375 396.683594 245.136719 395.90625 244.203125 395.34375 C 243.273438 394.785156 242.183594 394.503906 240.941406 394.503906 C 239.710938 394.503906 238.632812 394.785156 237.707031 395.34375 C 236.785156 395.90625 236.054688 396.683594 235.535156 397.675781 C 235.011719 398.667969 234.75 399.816406 234.75 401.121094 C 234.75 402.433594 235.011719 403.589844 235.535156 404.582031 C 236.054688 405.574219 236.785156 406.347656 237.707031 406.902344 C 238.632812 407.457031 239.710938 407.734375 240.941406 407.734375 C 242.183594 407.734375 243.273438 407.457031 244.203125 406.902344 Z M 244.203125 406.902344 "/>
<path fill-rule="nonzero" fill="rgb(65.098572%, 65.098572%, 65.098572%)" fill-opacity="1" d="M 252.398438 405.753906 C 251.703125 405.332031 251.164062 404.730469 250.773438 403.945312 C 250.382812 403.15625 250.1875 402.214844 250.1875 401.121094 C 250.1875 400.023438 250.382812 399.082031 250.773438 398.292969 C 251.164062 397.511719 251.703125 396.910156 252.398438 396.496094 C 253.09375 396.082031 253.898438 395.875 254.8125 395.875 C 255.734375 395.875 256.550781 396.082031 257.25 396.496094 C 257.949219 396.910156 258.492188 397.511719 258.878906 398.292969 C 259.257812 399.082031 259.453125 400.023438 259.453125 401.121094 C 259.453125 402.214844 259.257812 403.15625 258.878906 403.945312 C 258.492188 404.730469 257.949219 405.332031 257.25 405.753906 C 256.550781 406.171875 255.734375 406.382812 254.8125 406.382812 C 253.898438 406.382812 253.09375 406.171875 252.398438 405.753906 Z M 258.070312 406.902344 C 259.007812 406.347656 259.730469 405.574219 260.246094 404.582031 C 260.765625 403.589844 261.023438 402.433594 261.023438 401.121094 C 261.023438 399.816406 260.765625 398.667969 260.246094 397.675781 C 259.730469 396.683594 259.007812 395.90625 258.070312 395.34375 C 257.140625 394.785156 256.054688 394.503906 254.8125 394.503906 C 253.578125 394.503906 252.5 394.785156 251.578125 395.34375 C 250.652344 395.90625 249.925781 396.683594 249.402344 397.675781 C 248.878906 398.667969 248.617188 399.816406 248.617188 401.121094 C 248.617188 402.433594 248.878906 403.589844 249.402344 404.582031 C 249.925781 405.574219 250.652344 406.347656 251.578125 406.902344 C 252.5 407.457031 253.578125 407.734375 254.8125 407.734375 C 256.054688 407.734375 257.140625 407.457031 258.070312 406.902344 Z M 258.070312 406.902344 "/>
<path fill-rule="nonzero" fill="rgb(65.098572%, 65.098572%, 65.098572%)" fill-opacity="1" d="M 267.507812 407.515625 C 267.507812 407.515625 267.507812 395.984375 267.507812 395.984375 C 267.507812 395.984375 271.328125 395.984375 271.328125 395.984375 C 271.328125 395.984375 271.328125 394.722656 271.328125 394.722656 C 271.328125 394.722656 262.15625 394.722656 262.15625 394.722656 C 262.15625 394.722656 262.15625 395.984375 262.15625 395.984375 C 262.15625 395.984375 265.976562 395.984375 265.976562 395.984375 C 265.976562 395.984375 265.976562 407.515625 265.976562 407.515625 C 265.976562 407.515625 267.507812 407.515625 267.507812 407.515625 Z M 267.507812 407.515625 "/>
<path fill-rule="nonzero" fill="rgb(65.098572%, 65.098572%, 65.098572%)" fill-opacity="1" d="M 280.957031 404.226562 C 280.957031 404.226562 280.519531 402.984375 280.519531 402.984375 C 280.519531 402.984375 274.726562 402.984375 274.726562 402.984375 C 274.726562 402.984375 274.289062 404.226562 274.289062 404.226562 C 274.289062 404.226562 280.957031 404.226562 280.957031 404.226562 Z M 273.742188 407.515625 C 273.742188 407.515625 277.652344 396.644531 277.652344 396.644531 C 277.652344 396.644531 281.542969 407.515625 281.542969 407.515625 C 281.542969 407.515625 283.167969 407.515625 283.167969 407.515625 C 283.167969 407.515625 278.472656 394.722656 278.472656 394.722656 C 278.472656 394.722656 276.847656 394.722656 276.847656 394.722656 C 276.847656 394.722656 272.132812 407.515625 272.132812 407.515625 C 272.132812 407.515625 273.742188 407.515625 273.742188 407.515625 Z M 273.742188 407.515625 "/>
<path fill-rule="nonzero" fill="rgb(65.098572%, 65.098572%, 65.098572%)" fill-opacity="1" d="M 292.230469 407.46875 C 292.769531 407.292969 293.234375 407.027344 293.632812 406.679688 C 294.027344 406.335938 294.375 405.914062 294.679688 405.414062 C 294.679688 405.414062 294.808594 407.515625 294.808594 407.515625 C 294.808594 407.515625 296.214844 407.515625 296.214844 407.515625 C 296.214844 407.515625 296.214844 400.679688 296.214844 400.679688 C 296.214844 400.679688 290.953125 400.679688 290.953125 400.679688 C 290.953125 400.679688 290.953125 401.886719 290.953125 401.886719 C 290.953125 401.886719 294.644531 401.886719 294.644531 401.886719 C 294.542969 403.265625 294.148438 404.351562 293.457031 405.15625 C 292.761719 405.960938 291.730469 406.363281 290.367188 406.363281 C 289.492188 406.363281 288.714844 406.15625 288.035156 405.742188 C 287.363281 405.328125 286.832031 404.730469 286.457031 403.945312 C 286.082031 403.15625 285.890625 402.222656 285.890625 401.136719 C 285.890625 400.050781 286.082031 399.121094 286.457031 398.34375 C 286.832031 397.5625 287.375 396.964844 288.078125 396.542969 C 288.773438 396.125 289.59375 395.910156 290.53125 395.910156 C 291.542969 395.910156 292.367188 396.136719 293 396.589844 C 293.632812 397.039062 294.03125 397.648438 294.203125 398.414062 C 294.203125 398.414062 295.976562 398.414062 295.976562 398.414062 C 295.710938 397.183594 295.09375 396.226562 294.132812 395.535156 C 293.171875 394.847656 291.96875 394.503906 290.53125 394.503906 C 289.265625 394.503906 288.167969 394.785156 287.234375 395.34375 C 286.300781 395.90625 285.585938 396.6875 285.074219 397.683594 C 284.570312 398.683594 284.320312 399.832031 284.320312 401.136719 C 284.320312 402.453125 284.566406 403.605469 285.070312 404.589844 C 285.570312 405.578125 286.265625 406.347656 287.171875 406.902344 C 288.074219 407.457031 289.117188 407.734375 290.3125 407.734375 C 291.054688 407.734375 291.695312 407.644531 292.230469 407.46875 Z M 292.230469 407.46875 "/>
<path fill-rule="nonzero" fill="rgb(65.098572%, 65.098572%, 65.098572%)" fill-opacity="1" d="M 306.300781 407.515625 C 306.300781 407.515625 306.300781 406.253906 306.300781 406.253906 C 306.300781 406.253906 299.921875 406.253906 299.921875 406.253906 C 299.921875 406.253906 299.921875 401.6875 299.921875 401.6875 C 299.921875 401.6875 305.753906 401.6875 305.753906 401.6875 C 305.753906 401.6875 305.753906 400.441406 305.753906 400.441406 C 305.753906 400.441406 299.921875 400.441406 299.921875 400.441406 C 299.921875 400.441406 299.921875 395.984375 299.921875 395.984375 C 299.921875 395.984375 306.300781 395.984375 306.300781 395.984375 C 306.300781 395.984375 306.300781 394.722656 306.300781 394.722656 C 306.300781 394.722656 298.390625 394.722656 298.390625 394.722656 C 298.390625 394.722656 298.390625 407.515625 298.390625 407.515625 C 298.390625 407.515625 306.300781 407.515625 306.300781 407.515625 Z M 306.300781 407.515625 "/>
<path fill-rule="nonzero" fill="rgb(65.098572%, 65.098572%, 65.098572%)" fill-opacity="1" d="M 193.722656 407.988281 C 193.722656 407.988281 174.570312 407.988281 174.570312 407.988281 C 174.570312 407.988281 174.570312 392.566406 174.570312 392.566406 C 174.570312 392.566406 181.945312 392.566406 181.945312 392.566406 C 181.945312 392.566406 183.722656 394.769531 183.722656 394.769531 C 183.722656 394.769531 193.722656 394.769531 193.722656 394.769531 C 193.722656 394.769531 193.722656 407.988281 193.722656 407.988281 Z M 193.722656 407.988281 "/>
<path fill-rule="nonzero" fill="rgb(28.62854%, 9.799194%, 41.178894%)" fill-opacity="1" d="M 164.078125 392.621094 C 164.078125 392.621094 164.078125 408.152344 164.078125 408.152344 C 164.078125 408.152344 148.546875 408.152344 148.546875 408.152344 C 148.546875 408.152344 148.546875 392.621094 148.546875 392.621094 C 148.546875 392.621094 164.078125 392.621094 164.078125 392.621094 Z M 164.078125 392.621094 "/>
<path fill="none" stroke-width="42.240002" stroke-linecap="butt" stroke-linejoin="miter" stroke="rgb(65.098572%, 65.098572%, 65.098572%)" stroke-opacity="1" stroke-miterlimit="10" d="M -80.09604 -160.137729 C -80.09604 -160.137729 80.079036 0.037347 80.079036 0.037347 C 80.079036 0.037347 -80.09604 160.130198 -80.09604 160.130198 " transform="matrix(0.0475066, 0, 0, 0.0475066, 134.039466, 425.506038)"/>
<path fill-rule="nonzero" fill="rgb(65.098572%, 65.098572%, 65.098572%)" fill-opacity="1" d="M 211.800781 432.730469 C 211.800781 432.730469 211.800781 431.449219 211.800781 431.449219 C 211.800781 431.449219 205.566406 431.449219 205.566406 431.449219 C 206.03125 431.074219 206.527344 430.652344 207.058594 430.191406 C 207.589844 429.726562 208.105469 429.230469 208.613281 428.710938 C 209.117188 428.1875 209.582031 427.640625 209.996094 427.074219 C 210.417969 426.511719 210.75 425.925781 210.996094 425.328125 C 211.238281 424.734375 211.359375 424.132812 211.359375 423.539062 C 211.359375 422.6875 211.191406 421.976562 210.859375 421.417969 C 210.523438 420.859375 210.0625 420.4375 209.476562 420.152344 C 208.894531 419.863281 208.21875 419.71875 207.449219 419.71875 C 206.671875 419.71875 205.976562 419.878906 205.367188 420.195312 C 204.757812 420.511719 204.28125 420.972656 203.933594 421.578125 C 203.585938 422.179688 203.40625 422.898438 203.394531 423.738281 C 203.394531 423.738281 204.875 423.738281 204.875 423.738281 C 204.875 423.253906 204.96875 422.804688 205.15625 422.398438 C 205.34375 421.988281 205.628906 421.660156 206.007812 421.410156 C 206.382812 421.160156 206.859375 421.035156 207.433594 421.035156 C 208.015625 421.035156 208.484375 421.15625 208.832031 421.402344 C 209.175781 421.644531 209.429688 421.957031 209.589844 422.34375 C 209.746094 422.726562 209.824219 423.144531 209.824219 423.59375 C 209.824219 424.203125 209.652344 424.835938 209.308594 425.492188 C 208.957031 426.152344 208.480469 426.824219 207.871094 427.515625 C 207.261719 428.203125 206.566406 428.890625 205.789062 429.585938 C 205.007812 430.28125 204.179688 430.96875 203.300781 431.652344 C 203.300781 431.652344 203.300781 432.730469 203.300781 432.730469 C 203.300781 432.730469 211.800781 432.730469 211.800781 432.730469 Z M 211.800781 432.730469 "/>
<path fill-rule="nonzero" fill="rgb(65.098572%, 65.098572%, 65.098572%)" fill-opacity="1" d="M 216.675781 430.96875 C 216.105469 430.546875 215.65625 429.945312 215.324219 429.160156 C 214.996094 428.371094 214.832031 427.429688 214.832031 426.335938 C 214.832031 425.238281 214.996094 424.296875 215.324219 423.507812 C 215.65625 422.726562 216.105469 422.125 216.675781 421.710938 C 217.25 421.296875 217.902344 421.089844 218.632812 421.089844 C 219.363281 421.089844 220.015625 421.296875 220.585938 421.710938 C 221.160156 422.125 221.609375 422.726562 221.941406 423.507812 C 222.269531 424.296875 222.433594 425.238281 222.433594 426.335938 C 222.433594 427.429688 222.269531 428.371094 221.941406 429.160156 C 221.609375 429.945312 221.160156 430.546875 220.585938 430.96875 C 220.015625 431.386719 219.363281 431.597656 218.632812 431.597656 C 217.902344 431.597656 217.25 431.386719 216.675781 430.96875 Z M 221.519531 432.121094 C 222.3125 431.5625 222.921875 430.789062 223.355469 429.796875 C 223.789062 428.804688 224.003906 427.648438 224.003906 426.335938 C 224.003906 425.019531 223.789062 423.863281 223.355469 422.871094 C 222.921875 421.878906 222.3125 421.105469 221.519531 420.550781 C 220.726562 419.996094 219.773438 419.71875 218.652344 419.71875 C 217.527344 419.71875 216.5625 419.996094 215.757812 420.550781 C 214.945312 421.105469 214.328125 421.878906 213.898438 422.871094 C 213.472656 423.863281 213.261719 425.019531 213.261719 426.335938 C 213.261719 427.648438 213.472656 428.804688 213.898438 429.796875 C 214.328125 430.789062 214.945312 431.5625 215.757812 432.121094 C 216.5625 432.671875 217.527344 432.949219 218.652344 432.949219 C 219.773438 432.949219 220.726562 432.671875 221.519531 432.121094 Z M 221.519531 432.121094 "/>
<path fill-rule="nonzero" fill="rgb(65.098572%, 65.098572%, 65.098572%)" fill-opacity="1" d="M 232.097656 421.21875 C 232.097656 421.21875 234.710938 421.21875 234.710938 421.21875 C 235.734375 421.21875 236.464844 421.433594 236.90625 421.863281 C 237.34375 422.300781 237.5625 422.90625 237.5625 423.683594 C 237.5625 424.441406 237.34375 425.042969 236.90625 425.492188 C 236.464844 425.945312 235.734375 426.171875 234.710938 426.171875 C 234.710938 426.171875 232.097656 426.171875 232.097656 426.171875 C 232.097656 426.171875 232.097656 421.21875 232.097656 421.21875 Z M 232.097656 432.730469 C 232.097656 432.730469 232.097656 427.46875 232.097656 427.46875 C 232.097656 427.46875 234.730469 427.46875 234.730469 427.46875 C 235.753906 427.46875 236.585938 427.296875 237.234375 426.957031 C 237.878906 426.617188 238.359375 426.160156 238.664062 425.597656 C 238.976562 425.027344 239.132812 424.398438 239.132812 423.703125 C 239.132812 422.984375 238.976562 422.34375 238.664062 421.785156 C 238.359375 421.226562 237.875 420.777344 237.226562 420.445312 C 236.570312 420.105469 235.742188 419.9375 234.730469 419.9375 C 234.730469 419.9375 230.5625 419.9375 230.5625 419.9375 C 230.5625 419.9375 230.5625 432.730469 230.5625 432.730469 C 230.5625 432.730469 232.097656 432.730469 232.097656 432.730469 Z M 232.097656 432.730469 "/>
<path fill-rule="nonzero" fill="rgb(65.098572%, 65.098572%, 65.098572%)" fill-opacity="1" d="M 242.421875 421.238281 C 242.421875 421.238281 244.890625 421.238281 244.890625 421.238281 C 245.902344 421.238281 246.628906 421.460938 247.070312 421.90625 C 247.515625 422.347656 247.738281 422.945312 247.738281 423.703125 C 247.738281 424.445312 247.511719 425.054688 247.054688 425.53125 C 246.597656 426.003906 245.882812 426.242188 244.90625 426.242188 C 244.90625 426.242188 242.421875 426.242188 242.421875 426.242188 C 242.421875 426.242188 242.421875 421.238281 242.421875 421.238281 Z M 249.457031 432.730469 C 249.457031 432.730469 246.550781 427.011719 246.550781 427.011719 C 246.550781 427.011719 244.835938 427.011719 244.835938 427.011719 C 244.835938 427.011719 247.648438 432.730469 247.648438 432.730469 C 247.648438 432.730469 249.457031 432.730469 249.457031 432.730469 Z M 242.421875 432.730469 C 242.421875 432.730469 242.421875 427.449219 242.421875 427.449219 C 242.421875 427.449219 244.945312 427.449219 244.945312 427.449219 C 245.957031 427.449219 246.78125 427.277344 247.429688 426.9375 C 248.074219 426.597656 248.554688 426.140625 248.863281 425.566406 C 249.171875 424.992188 249.328125 424.367188 249.328125 423.683594 C 249.328125 422.980469 249.175781 422.34375 248.871094 421.785156 C 248.570312 421.226562 248.097656 420.777344 247.464844 420.445312 C 246.832031 420.105469 246.015625 419.9375 245.015625 419.9375 C 245.015625 419.9375 240.886719 419.9375 240.886719 419.9375 C 240.886719 419.9375 240.886719 432.730469 240.886719 432.730469 C 240.886719 432.730469 242.421875 432.730469 242.421875 432.730469 Z M 242.421875 432.730469 "/>
<path fill-rule="nonzero" fill="rgb(65.098572%, 65.098572%, 65.098572%)" fill-opacity="1" d="M 259.378906 432.730469 C 259.378906 432.730469 259.378906 431.46875 259.378906 431.46875 C 259.378906 431.46875 253 431.46875 253 431.46875 C 253 431.46875 253 426.902344 253 426.902344 C 253 426.902344 258.832031 426.902344 258.832031 426.902344 C 258.832031 426.902344 258.832031 425.660156 258.832031 425.660156 C 258.832031 425.660156 253 425.660156 253 425.660156 C 253 425.660156 253 421.199219 253 421.199219 C 253 421.199219 259.378906 421.199219 259.378906 421.199219 C 259.378906 421.199219 259.378906 419.9375 259.378906 419.9375 C 259.378906 419.9375 251.46875 419.9375 251.46875 419.9375 C 251.46875 419.9375 251.46875 432.730469 251.46875 432.730469 C 251.46875 432.730469 259.378906 432.730469 259.378906 432.730469 Z M 259.378906 432.730469 "/>
<path fill-rule="nonzero" fill="rgb(65.098572%, 65.098572%, 65.098572%)" fill-opacity="1" d="M 270.632812 431.90625 C 271.546875 431.214844 272.132812 430.25 272.386719 429.019531 C 272.386719 429.019531 270.6875 429.019531 270.6875 429.019531 C 270.496094 429.796875 270.097656 430.421875 269.5 430.890625 C 268.90625 431.363281 268.09375 431.597656 267.070312 431.597656 C 266.15625 431.597656 265.363281 431.386719 264.695312 430.96875 C 264.027344 430.546875 263.507812 429.945312 263.144531 429.160156 C 262.777344 428.371094 262.59375 427.429688 262.59375 426.335938 C 262.59375 425.238281 262.777344 424.296875 263.144531 423.507812 C 263.507812 422.726562 264.027344 422.125 264.695312 421.703125 C 265.363281 421.28125 266.15625 421.070312 267.070312 421.070312 C 268.09375 421.070312 268.90625 421.3125 269.5 421.796875 C 270.097656 422.273438 270.496094 422.910156 270.6875 423.703125 C 270.6875 423.703125 272.386719 423.703125 272.386719 423.703125 C 272.132812 422.433594 271.546875 421.457031 270.632812 420.761719 C 269.71875 420.066406 268.53125 419.71875 267.070312 419.71875 C 265.828125 419.71875 264.753906 419.996094 263.847656 420.550781 C 262.9375 421.105469 262.238281 421.878906 261.753906 422.871094 C 261.269531 423.863281 261.023438 425.019531 261.023438 426.335938 C 261.023438 427.648438 261.269531 428.804688 261.753906 429.796875 C 262.238281 430.789062 262.9375 431.5625 263.847656 432.121094 C 264.753906 432.671875 265.828125 432.949219 267.070312 432.949219 C 268.53125 432.949219 269.71875 432.601562 270.632812 431.90625 Z M 270.632812 431.90625 "/>
<path fill-rule="nonzero" fill="rgb(65.098572%, 65.098572%, 65.098572%)" fill-opacity="1" d="M 277.632812 430.96875 C 276.9375 430.546875 276.398438 429.945312 276.007812 429.160156 C 275.613281 428.371094 275.421875 427.429688 275.421875 426.335938 C 275.421875 425.238281 275.613281 424.296875 276.007812 423.507812 C 276.398438 422.726562 276.9375 422.125 277.632812 421.710938 C 278.328125 421.296875 279.128906 421.089844 280.042969 421.089844 C 280.96875 421.089844 281.785156 421.296875 282.480469 421.710938 C 283.183594 422.125 283.722656 422.726562 284.113281 423.507812 C 284.492188 424.296875 284.683594 425.238281 284.683594 426.335938 C 284.683594 427.429688 284.492188 428.371094 284.113281 429.160156 C 283.722656 429.945312 283.183594 430.546875 282.480469 430.96875 C 281.785156 431.386719 280.96875 431.597656 280.042969 431.597656 C 279.128906 431.597656 278.328125 431.386719 277.632812 430.96875 Z M 283.304688 432.121094 C 284.238281 431.5625 284.960938 430.789062 285.476562 429.796875 C 285.996094 428.804688 286.257812 427.648438 286.257812 426.335938 C 286.257812 425.03125 285.996094 423.882812 285.476562 422.890625 C 284.960938 421.898438 284.238281 421.121094 283.304688 420.558594 C 282.375 420 281.285156 419.71875 280.042969 419.71875 C 278.8125 419.71875 277.734375 420 276.808594 420.558594 C 275.886719 421.121094 275.160156 421.898438 274.636719 422.890625 C 274.113281 423.882812 273.851562 425.03125 273.851562 426.335938 C 273.851562 427.648438 274.113281 428.804688 274.636719 429.796875 C 275.160156 430.789062 275.886719 431.5625 276.808594 432.121094 C 277.734375 432.671875 278.8125 432.949219 280.042969 432.949219 C 281.285156 432.949219 282.375 432.671875 283.304688 432.121094 Z M 283.304688 432.121094 "/>
<path fill-rule="nonzero" fill="rgb(65.098572%, 65.098572%, 65.098572%)" fill-opacity="1" d="M 289.746094 432.730469 C 289.746094 432.730469 289.746094 422.714844 289.746094 422.714844 C 289.746094 422.714844 293.949219 430.9375 293.949219 430.9375 C 293.949219 430.9375 295.101562 430.9375 295.101562 430.9375 C 295.101562 430.9375 299.320312 422.679688 299.320312 422.679688 C 299.320312 422.679688 299.320312 432.730469 299.320312 432.730469 C 299.320312 432.730469 300.855469 432.730469 300.855469 432.730469 C 300.855469 432.730469 300.855469 419.9375 300.855469 419.9375 C 300.855469 419.9375 299.046875 419.9375 299.046875 419.9375 C 299.046875 419.9375 294.515625 428.875 294.515625 428.875 C 294.515625 428.875 290.003906 419.9375 290.003906 419.9375 C 290.003906 419.9375 288.210938 419.9375 288.210938 419.9375 C 288.210938 419.9375 288.210938 432.730469 288.210938 432.730469 C 288.210938 432.730469 289.746094 432.730469 289.746094 432.730469 Z M 289.746094 432.730469 "/>
<path fill-rule="nonzero" fill="rgb(65.098572%, 65.098572%, 65.098572%)" fill-opacity="1" d="M 304.839844 421.21875 C 304.839844 421.21875 307.453125 421.21875 307.453125 421.21875 C 308.476562 421.21875 309.207031 421.433594 309.644531 421.863281 C 310.082031 422.300781 310.300781 422.90625 310.300781 423.683594 C 310.300781 424.441406 310.082031 425.042969 309.644531 425.492188 C 309.207031 425.945312 308.476562 426.171875 307.453125 426.171875 C 307.453125 426.171875 304.839844 426.171875 304.839844 426.171875 C 304.839844 426.171875 304.839844 421.21875 304.839844 421.21875 Z M 304.839844 432.730469 C 304.839844 432.730469 304.839844 427.46875 304.839844 427.46875 C 304.839844 427.46875 307.46875 427.46875 307.46875 427.46875 C 308.492188 427.46875 309.328125 427.296875 309.972656 426.957031 C 310.621094 426.617188 311.097656 426.160156 311.40625 425.597656 C 311.714844 425.027344 311.875 424.398438 311.875 423.703125 C 311.875 422.984375 311.714844 422.34375 311.40625 421.785156 C 311.097656 421.226562 310.617188 420.777344 309.964844 420.445312 C 309.3125 420.105469 308.480469 419.9375 307.46875 419.9375 C 307.46875 419.9375 303.304688 419.9375 303.304688 419.9375 C 303.304688 419.9375 303.304688 432.730469 303.304688 432.730469 C 303.304688 432.730469 304.839844 432.730469 304.839844 432.730469 Z M 304.839844 432.730469 "/>
<path fill-rule="nonzero" fill="rgb(65.098572%, 65.098572%, 65.098572%)" fill-opacity="1" d="M 320.097656 432.4375 C 320.726562 432.097656 321.207031 431.65625 321.53125 431.109375 C 321.855469 430.570312 322.015625 429.996094 322.015625 429.386719 C 322.015625 428.664062 321.878906 428.078125 321.605469 427.613281 C 321.332031 427.148438 320.949219 426.769531 320.472656 426.472656 C 319.988281 426.171875 319.4375 425.921875 318.816406 425.714844 C 318.269531 425.53125 317.769531 425.367188 317.320312 425.21875 C 316.867188 425.074219 316.472656 424.914062 316.140625 424.738281 C 315.804688 424.558594 315.550781 424.34375 315.371094 424.085938 C 315.195312 423.832031 315.109375 423.496094 315.109375 423.082031 C 315.109375 422.644531 315.207031 422.269531 315.410156 421.96875 C 315.613281 421.664062 315.890625 421.429688 316.25 421.265625 C 316.609375 421.097656 317.019531 421.023438 317.484375 421.035156 C 318.042969 421.035156 318.511719 421.148438 318.882812 421.371094 C 319.25 421.597656 319.53125 421.882812 319.710938 422.222656 C 319.894531 422.5625 319.984375 422.910156 319.984375 423.265625 C 319.984375 423.265625 321.59375 423.265625 321.59375 423.265625 C 321.59375 422.570312 321.421875 421.957031 321.082031 421.429688 C 320.742188 420.898438 320.269531 420.480469 319.664062 420.175781 C 319.066406 419.875 318.351562 419.71875 317.539062 419.71875 C 316.707031 419.71875 315.996094 419.871094 315.390625 420.167969 C 314.789062 420.464844 314.324219 420.878906 314.003906 421.402344 C 313.679688 421.921875 313.519531 422.535156 313.519531 423.226562 C 313.519531 424.042969 313.753906 424.707031 314.230469 425.21875 C 314.707031 425.730469 315.449219 426.160156 316.460938 426.5 C 316.980469 426.671875 317.488281 426.832031 317.96875 426.980469 C 318.449219 427.132812 318.871094 427.308594 319.238281 427.503906 C 319.601562 427.699219 319.890625 427.953125 320.105469 428.261719 C 320.320312 428.574219 320.425781 428.976562 320.425781 429.476562 C 320.425781 429.890625 320.320312 430.261719 320.105469 430.589844 C 319.890625 430.921875 319.582031 431.179688 319.171875 431.371094 C 318.765625 431.554688 318.277344 431.652344 317.703125 431.652344 C 317.042969 431.652344 316.492188 431.527344 316.050781 431.277344 C 315.605469 431.027344 315.265625 430.695312 315.035156 430.273438 C 314.804688 429.855469 314.6875 429.394531 314.6875 428.890625 C 314.6875 428.890625 313.078125 428.890625 313.078125 428.890625 C 313.078125 429.695312 313.269531 430.402344 313.644531 431.011719 C 314.023438 431.621094 314.558594 432.097656 315.253906 432.4375 C 315.949219 432.777344 316.761719 432.949219 317.703125 432.949219 C 318.664062 432.949219 319.464844 432.777344 320.097656 432.4375 Z M 320.097656 432.4375 "/>
<path fill-rule="nonzero" fill="rgb(65.098572%, 65.098572%, 65.098572%)" fill-opacity="1" d="M 193.722656 433.203125 C 193.722656 433.203125 174.570312 433.203125 174.570312 433.203125 C 174.570312 433.203125 174.570312 417.78125 174.570312 417.78125 C 174.570312 417.78125 181.945312 417.78125 181.945312 417.78125 C 181.945312 417.78125 183.722656 419.984375 183.722656 419.984375 C 183.722656 419.984375 193.722656 419.984375 193.722656 419.984375 C 193.722656 419.984375 193.722656 433.203125 193.722656 433.203125 Z M 193.722656 433.203125 "/>
<path fill-rule="nonzero" fill="rgb(95.689392%, 55.688477%, 91.758728%)" fill-opacity="1" d="M 164.078125 417.839844 C 164.078125 417.839844 164.078125 433.367188 164.078125 433.367188 C 164.078125 433.367188 148.546875 433.367188 148.546875 433.367188 C 148.546875 433.367188 148.546875 417.839844 148.546875 417.839844 C 148.546875 417.839844 164.078125 417.839844 164.078125 417.839844 Z M 164.078125 417.839844 "/>
<path fill="none" stroke-width="42.240002" stroke-linecap="butt" stroke-linejoin="miter" stroke="rgb(65.098572%, 65.098572%, 65.098572%)" stroke-opacity="1" stroke-miterlimit="10" d="M -80.09604 -160.123951 C -80.09604 -160.123951 80.079036 -0.0311001 80.079036 -0.0311001 C 80.079036 -0.0311001 -80.09604 160.143976 -80.09604 160.143976 " transform="matrix(0.0475066, 0, 0, 0.0475066, 134.039466, 450.903821)"/>
<path fill-rule="nonzero" fill="rgb(65.098572%, 65.098572%, 65.098572%)" fill-opacity="1" d="M 209.84375 457.808594 C 210.476562 457.449219 210.953125 456.972656 211.277344 456.378906 C 211.601562 455.792969 211.761719 455.148438 211.761719 454.453125 C 211.761719 453.84375 211.644531 453.316406 211.414062 452.863281 C 211.183594 452.414062 210.871094 452.050781 210.476562 451.769531 C 210.078125 451.488281 209.632812 451.300781 209.132812 451.203125 C 209.617188 451.082031 210.019531 450.875 210.335938 450.582031 C 210.65625 450.289062 210.894531 449.953125 211.050781 449.570312 C 211.207031 449.179688 211.289062 448.773438 211.289062 448.332031 C 211.289062 447.75 211.144531 447.210938 210.859375 446.726562 C 210.570312 446.238281 210.148438 445.847656 209.589844 445.554688 C 209.027344 445.265625 208.335938 445.117188 207.503906 445.117188 C 206.710938 445.117188 206.023438 445.269531 205.441406 445.566406 C 204.855469 445.863281 204.390625 446.28125 204.050781 446.816406 C 203.710938 447.355469 203.523438 447.96875 203.484375 448.664062 C 203.484375 448.664062 205.039062 448.664062 205.039062 448.664062 C 205.101562 448.015625 205.339844 447.484375 205.769531 447.074219 C 206.195312 446.660156 206.765625 446.453125 207.488281 446.453125 C 208.230469 446.453125 208.792969 446.636719 209.167969 447.011719 C 209.542969 447.378906 209.734375 447.851562 209.734375 448.425781 C 209.734375 449.109375 209.496094 449.640625 209.023438 450.03125 C 208.546875 450.425781 207.890625 450.617188 207.046875 450.617188 C 207.046875 450.617188 206.097656 450.617188 206.097656 450.617188 C 206.097656 450.617188 206.097656 451.914062 206.097656 451.914062 C 206.097656 451.914062 207.046875 451.914062 207.046875 451.914062 C 207.621094 451.914062 208.148438 452.007812 208.628906 452.1875 C 209.109375 452.371094 209.492188 452.648438 209.777344 453.019531 C 210.066406 453.390625 210.210938 453.871094 210.210938 454.453125 C 210.210938 454.929688 210.105469 455.359375 209.898438 455.742188 C 209.691406 456.128906 209.386719 456.433594 208.984375 456.664062 C 208.582031 456.894531 208.082031 457.011719 207.488281 457.011719 C 206.890625 457.011719 206.378906 456.890625 205.953125 456.648438 C 205.523438 456.402344 205.199219 456.078125 204.976562 455.671875 C 204.75 455.261719 204.628906 454.8125 204.617188 454.328125 C 204.617188 454.328125 203.066406 454.328125 203.066406 454.328125 C 203.089844 455.214844 203.296875 455.960938 203.6875 456.554688 C 204.078125 457.152344 204.605469 457.601562 205.265625 457.902344 C 205.929688 458.195312 206.671875 458.347656 207.488281 458.347656 C 208.425781 458.347656 209.210938 458.167969 209.84375 457.808594 Z M 209.84375 457.808594 "/>
<path fill-rule="nonzero" fill="rgb(65.098572%, 65.098572%, 65.098572%)" fill-opacity="1" d="M 216.953125 456.367188 C 216.378906 455.945312 215.929688 455.34375 215.597656 454.558594 C 215.269531 453.769531 215.105469 452.828125 215.105469 451.730469 C 215.105469 450.636719 215.269531 449.691406 215.597656 448.90625 C 215.929688 448.125 216.378906 447.523438 216.953125 447.109375 C 217.527344 446.695312 218.175781 446.488281 218.90625 446.488281 C 219.636719 446.488281 220.289062 446.695312 220.863281 447.109375 C 221.4375 447.523438 221.886719 448.125 222.214844 448.90625 C 222.542969 449.691406 222.707031 450.636719 222.707031 451.730469 C 222.707031 452.828125 222.542969 453.769531 222.214844 454.558594 C 221.886719 455.34375 221.4375 455.945312 220.863281 456.367188 C 220.289062 456.785156 219.636719 456.996094 218.90625 456.996094 C 218.175781 456.996094 217.527344 456.785156 216.953125 456.367188 Z M 221.792969 457.515625 C 222.585938 456.960938 223.195312 456.1875 223.628906 455.195312 C 224.0625 454.203125 224.277344 453.046875 224.277344 451.730469 C 224.277344 450.417969 224.0625 449.261719 223.628906 448.269531 C 223.195312 447.277344 222.585938 446.503906 221.792969 445.949219 C 221 445.394531 220.046875 445.117188 218.925781 445.117188 C 217.804688 445.117188 216.839844 445.394531 216.03125 445.949219 C 215.21875 446.503906 214.601562 447.277344 214.175781 448.269531 C 213.746094 449.261719 213.535156 450.417969 213.535156 451.730469 C 213.535156 453.046875 213.746094 454.203125 214.175781 455.195312 C 214.601562 456.1875 215.21875 456.960938 216.03125 457.515625 C 216.839844 458.070312 217.804688 458.347656 218.925781 458.347656 C 220.046875 458.347656 221 458.070312 221.792969 457.515625 Z M 221.792969 457.515625 "/>
<path fill-rule="nonzero" fill="rgb(65.098572%, 65.098572%, 65.098572%)" fill-opacity="1" d="M 232.371094 458.128906 C 232.371094 458.128906 232.371094 448.113281 232.371094 448.113281 C 232.371094 448.113281 236.574219 456.335938 236.574219 456.335938 C 236.574219 456.335938 237.726562 456.335938 237.726562 456.335938 C 237.726562 456.335938 241.949219 448.078125 241.949219 448.078125 C 241.949219 448.078125 241.949219 458.128906 241.949219 458.128906 C 241.949219 458.128906 243.480469 458.128906 243.480469 458.128906 C 243.480469 458.128906 243.480469 445.335938 243.480469 445.335938 C 243.480469 445.335938 241.671875 445.335938 241.671875 445.335938 C 241.671875 445.335938 237.140625 454.273438 237.140625 454.273438 C 237.140625 454.273438 232.628906 445.335938 232.628906 445.335938 C 232.628906 445.335938 230.839844 445.335938 230.839844 445.335938 C 230.839844 445.335938 230.839844 458.128906 230.839844 458.128906 C 230.839844 458.128906 232.371094 458.128906 232.371094 458.128906 Z M 232.371094 458.128906 "/>
<path fill-rule="nonzero" fill="rgb(65.098572%, 65.098572%, 65.098572%)" fill-opacity="1" d="M 253.933594 454.839844 C 253.933594 454.839844 253.496094 453.597656 253.496094 453.597656 C 253.496094 453.597656 247.703125 453.597656 247.703125 453.597656 C 247.703125 453.597656 247.265625 454.839844 247.265625 454.839844 C 247.265625 454.839844 253.933594 454.839844 253.933594 454.839844 Z M 246.714844 458.128906 C 246.714844 458.128906 250.625 447.253906 250.625 447.253906 C 250.625 447.253906 254.519531 458.128906 254.519531 458.128906 C 254.519531 458.128906 256.144531 458.128906 256.144531 458.128906 C 256.144531 458.128906 251.449219 445.335938 251.449219 445.335938 C 251.449219 445.335938 249.824219 445.335938 249.824219 445.335938 C 249.824219 445.335938 245.109375 458.128906 245.109375 458.128906 C 245.109375 458.128906 246.714844 458.128906 246.714844 458.128906 Z M 246.714844 458.128906 "/>
<path fill-rule="nonzero" fill="rgb(65.098572%, 65.098572%, 65.098572%)" fill-opacity="1" d="M 259.324219 458.128906 C 259.324219 458.128906 259.324219 445.335938 259.324219 445.335938 C 259.324219 445.335938 257.789062 445.335938 257.789062 445.335938 C 257.789062 445.335938 257.789062 458.128906 257.789062 458.128906 C 257.789062 458.128906 259.324219 458.128906 259.324219 458.128906 Z M 259.324219 458.128906 "/>
<path fill-rule="nonzero" fill="rgb(65.098572%, 65.098572%, 65.098572%)" fill-opacity="1" d="M 263.324219 458.128906 C 263.324219 458.128906 263.324219 447.875 263.324219 447.875 C 263.324219 447.875 270.140625 458.128906 270.140625 458.128906 C 270.140625 458.128906 271.675781 458.128906 271.675781 458.128906 C 271.675781 458.128906 271.675781 445.335938 271.675781 445.335938 C 271.675781 445.335938 270.140625 445.335938 270.140625 445.335938 C 270.140625 445.335938 270.140625 455.585938 270.140625 455.585938 C 270.140625 455.585938 263.324219 445.335938 263.324219 445.335938 C 263.324219 445.335938 261.789062 445.335938 261.789062 445.335938 C 261.789062 445.335938 261.789062 458.128906 261.789062 458.128906 C 261.789062 458.128906 263.324219 458.128906 263.324219 458.128906 Z M 263.324219 458.128906 "/>
<path fill-rule="nonzero" fill="rgb(65.098572%, 65.098572%, 65.098572%)" fill-opacity="1" d="M 193.722656 458.601562 C 193.722656 458.601562 174.570312 458.601562 174.570312 458.601562 C 174.570312 458.601562 174.570312 443.179688 174.570312 443.179688 C 174.570312 443.179688 181.945312 443.179688 181.945312 443.179688 C 181.945312 443.179688 183.722656 445.378906 183.722656 445.378906 C 183.722656 445.378906 193.722656 445.378906 193.722656 445.378906 C 193.722656 445.378906 193.722656 458.601562 193.722656 458.601562 Z M 193.722656 458.601562 "/>
<path fill-rule="nonzero" fill="rgb(100%, 43.528748%, 38.819885%)" fill-opacity="1" d="M 164.078125 443.234375 C 164.078125 443.234375 164.078125 458.765625 164.078125 458.765625 C 164.078125 458.765625 148.546875 458.765625 148.546875 458.765625 C 148.546875 458.765625 148.546875 443.234375 148.546875 443.234375 C 148.546875 443.234375 164.078125 443.234375 164.078125 443.234375 Z M 164.078125 443.234375 "/>
<path fill="none" stroke-width="2" stroke-linecap="butt" stroke-linejoin="miter" stroke="rgb(0%, 0%, 0%)" stroke-opacity="1" stroke-miterlimit="4" d="M -371.502262 -88.2493 C -371.502262 -88.2493 -408.754478 -88.2493 -408.754478 -88.2493 " transform="matrix(0.365435, 0, 0, 0.365435, 319.752291, 426.745518)"/>
<path fill="none" stroke-width="2" stroke-linecap="butt" stroke-linejoin="miter" stroke="rgb(0%, 0%, 0%)" stroke-opacity="1" stroke-miterlimit="4" d="M -371.502262 -88.245816 C -371.502262 -88.245816 -408.754478 -88.245816 -408.754478 -88.245816 " transform="matrix(0.365435, 0, 0, 0.365435, 319.752291, 451.869245)"/>
<path fill="none" stroke-width="2" stroke-linecap="butt" stroke-linejoin="miter" stroke="rgb(0%, 0%, 0%)" stroke-opacity="1" stroke-miterlimit="4" d="M -371.502262 -88.246098 C -371.502262 -88.246098 -408.754478 -88.246098 -408.754478 -88.246098 " transform="matrix(0.365435, 0, 0, 0.365435, 319.752291, 477.244348)"/>
</svg>
