<?xml version="1.0" encoding="UTF-8"?>
<svg xmlns="http://www.w3.org/2000/svg" xmlns:xlink="http://www.w3.org/1999/xlink" width="612" height="792" viewBox="0 0 612 792">
<path fill="none" stroke-width="42.240002" stroke-linecap="butt" stroke-linejoin="round" stroke="rgb(72.158813%, 72.158813%, 72.158813%)" stroke-opacity="1" stroke-miterlimit="4" d="M 144.387131 197.182303 C 144.387131 197.182303 481.579972 197.182303 481.579972 197.182303 " transform="matrix(0.0475896, 0, 0, 0.0475907, 453.816173, 325.865962)"/>
<path fill-rule="nonzero" fill="rgb(13.729858%, 13.729858%, 13.729858%)" fill-opacity="1" d="M 611.664062 302.027344 C 611.664062 302.027344 611.664062 490.066406 611.664062 490.066406 C 611.664062 494.324219 608.207031 497.777344 603.953125 497.777344 C 603.953125 497.777344 8.394531 497.777344 8.394531 497.777344 C 4.140625 497.777344 0.6875 494.324219 0.6875 490.066406 C 0.6875 490.066406 0.6875 302.027344 0.6875 302.027344 C 0.6875 297.773438 4.140625 294.316406 8.394531 294.316406 C 8.394531 294.316406 603.953125 294.316406 603.953125 294.316406 C 608.207031 294.316406 611.664062 297.773438 611.664062 302.027344 Z M 611.664062 302.027344 "/>
<path fill-rule="nonzero" fill="rgb(0%, 0%, 0%)" fill-opacity="1" stroke-width="2" stroke-linecap="butt" stroke-linejoin="miter" stroke="rgb(64.709473%, 64.709473%, 64.709473%)" stroke-opacity="1" stroke-miterlimit="4" d="M 370.504267 -30.003691 C 370.504267 -30.003691 370.504267 29.996086 370.504267 29.996086 C 370.504267 46.55658 357.059236 60.00131 340.498373 60.00131 C 340.498373 60.00131 -340.503114 60.00131 -340.503114 60.00131 C -357.053307 60.00131 -370.498338 46.55658 -370.498338 29.996086 C -370.498338 29.996086 -370.498338 -30.003691 -370.498338 -30.003691 C -370.498338 -46.553513 -357.053307 -59.998244 -340.503114 -59.998244 C -340.503114 -59.998244 340.498373 -59.998244 340.498373 -59.998244 C 357.059236 -59.998244 370.504267 -46.553513 370.504267 -30.003691 Z M 370.504267 -30.003691 " transform="matrix(0.366074, 0, 0, 0.366082, 155.35243, 335.64397)"/>
<path fill-rule="nonzero" fill="rgb(19.999695%, 19.999695%, 19.999695%)" fill-opacity="1" d="M 350.46875 324.296875 C 350.46875 324.296875 350.46875 346.261719 350.46875 346.261719 C 350.46875 352.320312 345.546875 357.242188 339.488281 357.242188 C 339.488281 357.242188 320.453125 357.242188 320.453125 357.242188 C 314.390625 357.242188 309.46875 352.320312 309.46875 346.261719 C 309.46875 346.261719 309.46875 324.296875 309.46875 324.296875 C 309.46875 318.234375 314.390625 313.3125 320.453125 313.3125 C 320.453125 313.3125 339.488281 313.3125 339.488281 313.3125 C 345.546875 313.3125 350.46875 318.234375 350.46875 324.296875 Z M 350.46875 324.296875 "/>
<path fill-rule="nonzero" fill="rgb(19.999695%, 19.999695%, 19.999695%)" fill-opacity="1" d="M 397.691406 324.296875 C 397.691406 324.296875 397.691406 346.261719 397.691406 346.261719 C 397.691406 352.320312 392.773438 357.242188 386.710938 357.242188 C 386.710938 357.242188 367.675781 357.242188 367.675781 357.242188 C 361.613281 357.242188 356.691406 352.320312 356.691406 346.261719 C 356.691406 346.261719 356.691406 324.296875 356.691406 324.296875 C 356.691406 318.234375 361.613281 313.3125 367.675781 313.3125 C 367.675781 313.3125 386.710938 313.3125 386.710938 313.3125 C 392.773438 313.3125 397.691406 318.234375 397.691406 324.296875 Z M 397.691406 324.296875 "/>
<path fill-rule="nonzero" fill="rgb(19.999695%, 19.999695%, 19.999695%)" fill-opacity="1" d="M 445.648438 324.296875 C 445.648438 324.296875 445.648438 346.261719 445.648438 346.261719 C 445.648438 352.320312 440.726562 357.242188 434.667969 357.242188 C 434.667969 357.242188 415.632812 357.242188 415.632812 357.242188 C 409.570312 357.242188 404.648438 352.320312 404.648438 346.261719 C 404.648438 346.261719 404.648438 324.296875 404.648438 324.296875 C 404.648438 318.234375 409.570312 313.3125 415.632812 313.3125 C 415.632812 313.3125 434.667969 313.3125 434.667969 313.3125 C 440.726562 313.3125 445.648438 318.234375 445.648438 324.296875 Z M 445.648438 324.296875 "/>
<path fill-rule="nonzero" fill="rgb(19.999695%, 19.999695%, 19.999695%)" fill-opacity="1" d="M 493.238281 324.296875 C 493.238281 324.296875 493.238281 346.261719 493.238281 346.261719 C 493.238281 352.320312 488.316406 357.242188 482.257812 357.242188 C 482.257812 357.242188 463.21875 357.242188 463.21875 357.242188 C 457.160156 357.242188 452.238281 352.320312 452.238281 346.261719 C 452.238281 346.261719 452.238281 324.296875 452.238281 324.296875 C 452.238281 318.234375 457.160156 313.3125 463.21875 313.3125 C 463.21875 313.3125 482.257812 313.3125 482.257812 313.3125 C 488.316406 313.3125 493.238281 318.234375 493.238281 324.296875 Z M 493.238281 324.296875 "/>
<path fill-rule="nonzero" fill="rgb(5.099487%, 5.099487%, 5.099487%)" fill-opacity="1" d="M 589.699219 321.914062 C 589.699219 321.914062 589.699219 348.640625 589.699219 348.640625 C 589.699219 354.699219 584.777344 359.621094 578.71875 359.621094 C 578.71875 359.621094 527.101562 359.621094 527.101562 359.621094 C 521.039062 359.621094 516.117188 354.699219 516.117188 348.640625 C 516.117188 348.640625 516.117188 321.914062 516.117188 321.914062 C 516.117188 315.855469 521.039062 310.933594 527.101562 310.933594 C 527.101562 310.933594 578.71875 310.933594 578.71875 310.933594 C 584.777344 310.933594 589.699219 315.855469 589.699219 321.914062 Z M 589.699219 321.914062 "/>
<path fill-rule="nonzero" fill="rgb(35.688782%, 30.198669%, 95.689392%)" fill-opacity="1" d="M 100.257812 381.585938 C 100.257812 381.585938 100.257812 408.3125 100.257812 408.3125 C 100.257812 414.371094 95.335938 419.292969 89.277344 419.292969 C 89.277344 419.292969 29.605469 419.292969 29.605469 419.292969 C 23.546875 419.292969 18.625 414.371094 18.625 408.3125 C 18.625 408.3125 18.625 381.585938 18.625 381.585938 C 18.625 375.527344 23.546875 370.605469 29.605469 370.605469 C 29.605469 370.605469 89.277344 370.605469 89.277344 370.605469 C 95.335938 370.605469 100.257812 375.527344 100.257812 381.585938 Z M 100.257812 381.585938 "/>
<path fill-rule="nonzero" fill="rgb(36.468506%, 36.468506%, 36.468506%)" fill-opacity="1" d="M 193.605469 381.585938 C 193.605469 381.585938 193.605469 408.3125 193.605469 408.3125 C 193.605469 414.371094 188.6875 419.292969 182.625 419.292969 C 182.625 419.292969 122.953125 419.292969 122.953125 419.292969 C 116.894531 419.292969 111.972656 414.371094 111.972656 408.3125 C 111.972656 408.3125 111.972656 381.585938 111.972656 381.585938 C 111.972656 375.527344 116.894531 370.605469 122.953125 370.605469 C 122.953125 370.605469 182.625 370.605469 182.625 370.605469 C 188.6875 370.605469 193.605469 375.527344 193.605469 381.585938 Z M 193.605469 381.585938 "/>
<path fill-rule="nonzero" fill="rgb(38.038635%, 92.158508%, 72.158813%)" fill-opacity="1" d="M 238.632812 391.835938 C 238.632812 391.835938 238.632812 399.523438 238.632812 399.523438 C 238.632812 408.3125 231.5 415.449219 222.710938 415.449219 C 213.921875 415.449219 206.785156 408.3125 206.785156 399.523438 C 206.785156 399.523438 206.785156 391.835938 206.785156 391.835938 C 206.785156 383.046875 213.921875 375.914062 222.710938 375.914062 C 231.5 375.914062 238.632812 383.046875 238.632812 391.835938 Z M 238.632812 391.835938 "/>
<path fill-rule="nonzero" fill="rgb(38.038635%, 92.158508%, 72.158813%)" fill-opacity="1" d="M 276.339844 391.835938 C 276.339844 391.835938 276.339844 399.523438 276.339844 399.523438 C 276.339844 408.3125 269.203125 415.449219 260.414062 415.449219 C 251.628906 415.449219 244.492188 408.3125 244.492188 399.523438 C 244.492188 399.523438 244.492188 391.835938 244.492188 391.835938 C 244.492188 383.046875 251.628906 375.914062 260.414062 375.914062 C 269.203125 375.914062 276.339844 383.046875 276.339844 391.835938 Z M 276.339844 391.835938 "/>
<path fill-rule="nonzero" fill="rgb(5.099487%, 5.099487%, 5.099487%)" fill-opacity="1" d="M 331.25 395.679688 C 331.25 406.589844 322.394531 415.449219 311.484375 415.449219 C 311.484375 415.449219 305.257812 415.449219 305.257812 415.449219 C 294.351562 415.449219 285.492188 406.589844 285.492188 395.679688 C 285.492188 384.769531 294.351562 375.914062 305.257812 375.914062 C 305.257812 375.914062 311.484375 375.914062 311.484375 375.914062 C 322.394531 375.914062 331.25 384.769531 331.25 395.679688 Z M 331.25 395.679688 "/>
<path fill-rule="nonzero" fill="rgb(5.099487%, 5.099487%, 5.099487%)" fill-opacity="1" d="M 382.867188 395.679688 C 382.867188 406.589844 374.007812 415.449219 363.097656 415.449219 C 363.097656 415.449219 356.875 415.449219 356.875 415.449219 C 345.964844 415.449219 337.109375 406.589844 337.109375 395.679688 C 337.109375 384.769531 345.964844 375.914062 356.875 375.914062 C 356.875 375.914062 363.097656 375.914062 363.097656 375.914062 C 374.007812 375.914062 382.867188 384.769531 382.867188 395.679688 Z M 382.867188 395.679688 "/>
<path fill-rule="nonzero" fill="rgb(5.099487%, 5.099487%, 5.099487%)" fill-opacity="1" d="M 434.851562 395.679688 C 434.851562 406.589844 425.992188 415.449219 415.082031 415.449219 C 415.082031 415.449219 408.859375 415.449219 408.859375 415.449219 C 397.949219 415.449219 389.089844 406.589844 389.089844 395.679688 C 389.089844 384.769531 397.949219 375.914062 408.859375 375.914062 C 408.859375 375.914062 415.082031 375.914062 415.082031 375.914062 C 425.992188 375.914062 434.851562 384.769531 434.851562 395.679688 Z M 434.851562 395.679688 "/>
<path fill-rule="nonzero" fill="rgb(86.669922%, 86.669922%, 86.669922%)" fill-opacity="1" d="M 486.464844 395.679688 C 486.464844 406.589844 477.609375 415.449219 466.699219 415.449219 C 466.699219 415.449219 460.476562 415.449219 460.476562 415.449219 C 449.566406 415.449219 440.707031 406.589844 440.707031 395.679688 C 440.707031 384.769531 449.566406 375.914062 460.476562 375.914062 C 460.476562 375.914062 466.699219 375.914062 466.699219 375.914062 C 477.609375 375.914062 486.464844 384.769531 486.464844 395.679688 Z M 486.464844 395.679688 "/>
<path fill-rule="nonzero" fill="rgb(86.669922%, 86.669922%, 86.669922%)" fill-opacity="1" d="M 538.816406 395.679688 C 538.816406 406.589844 529.957031 415.449219 519.046875 415.449219 C 519.046875 415.449219 512.824219 415.449219 512.824219 415.449219 C 501.914062 415.449219 493.054688 406.589844 493.054688 395.679688 C 493.054688 384.769531 501.914062 375.914062 512.824219 375.914062 C 512.824219 375.914062 519.046875 375.914062 519.046875 375.914062 C 529.957031 375.914062 538.816406 384.769531 538.816406 395.679688 Z M 538.816406 395.679688 "/>
<path fill-rule="nonzero" fill="rgb(19.999695%, 19.999695%, 19.999695%)" fill-opacity="1" d="M 589.148438 385.429688 C 589.148438 385.429688 589.148438 407.394531 589.148438 407.394531 C 589.148438 413.457031 584.230469 418.378906 578.167969 418.378906 C 578.167969 418.378906 559.132812 418.378906 559.132812 418.378906 C 553.070312 418.378906 548.148438 413.457031 548.148438 407.394531 C 548.148438 407.394531 548.148438 385.429688 548.148438 385.429688 C 548.148438 379.371094 553.070312 374.449219 559.132812 374.449219 C 559.132812 374.449219 578.167969 374.449219 578.167969 374.449219 C 584.230469 374.449219 589.148438 379.371094 589.148438 385.429688 Z M 589.148438 385.429688 "/>
<path fill-rule="nonzero" fill="rgb(0%, 0%, 0%)" fill-opacity="1" stroke-width="2" stroke-linecap="butt" stroke-linejoin="miter" stroke="rgb(64.709473%, 64.709473%, 64.709473%)" stroke-opacity="1" stroke-miterlimit="4" d="M 71.002222 -30.004227 C 71.002222 -30.004227 71.002222 29.99555 71.002222 29.99555 C 71.002222 46.556043 57.557191 60.000773 40.996327 60.000773 C 40.996327 60.000773 -40.99702 60.000773 -40.99702 60.000773 C -57.557884 60.000773 -71.002914 46.556043 -71.002914 29.99555 C -71.002914 29.99555 -71.002914 -30.004227 -71.002914 -30.004227 C -71.002914 -46.55405 -57.557884 -59.99878 -40.99702 -59.99878 C -40.99702 -59.99878 40.996327 -59.99878 40.996327 -59.99878 C 57.557191 -59.99878 71.002222 -46.55405 71.002222 -30.004227 Z M 71.002222 -30.004227 " transform="matrix(0.366074, 0, 0, 0.366082, 45.164189, 457.183229)"/>
<path fill-rule="nonzero" fill="rgb(0%, 0%, 0%)" fill-opacity="1" stroke-width="2" stroke-linecap="butt" stroke-linejoin="miter" stroke="rgb(64.709473%, 64.709473%, 64.709473%)" stroke-opacity="1" stroke-miterlimit="4" d="M 71.004098 -30.004227 C 71.004098 -30.004227 71.004098 29.99555 71.004098 29.99555 C 71.004098 46.556043 57.559067 60.000773 40.998204 60.000773 C 40.998204 60.000773 -40.995143 60.000773 -40.995143 60.000773 C -57.556007 60.000773 -71.001038 46.556043 -71.001038 29.99555 C -71.001038 29.99555 -71.001038 -30.004227 -71.001038 -30.004227 C -71.001038 -46.55405 -57.556007 -59.99878 -40.995143 -59.99878 C -40.995143 -59.99878 40.998204 -59.99878 40.998204 -59.99878 C 57.559067 -59.99878 71.004098 -46.55405 71.004098 -30.004227 Z M 71.004098 -30.004227 " transform="matrix(0.366074, 0, 0, 0.366082, 109.59319, 457.183229)"/>
<path fill-rule="nonzero" fill="rgb(19.999695%, 19.999695%, 19.999695%)" fill-opacity="1" d="M 187.933594 445.835938 C 187.933594 445.835938 187.933594 467.800781 187.933594 467.800781 C 187.933594 473.859375 183.011719 478.78125 176.949219 478.78125 C 176.949219 478.78125 157.914062 478.78125 157.914062 478.78125 C 151.855469 478.78125 146.933594 473.859375 146.933594 467.800781 C 146.933594 467.800781 146.933594 445.835938 146.933594 445.835938 C 146.933594 439.773438 151.855469 434.851562 157.914062 434.851562 C 157.914062 434.851562 176.949219 434.851562 176.949219 434.851562 C 183.011719 434.851562 187.933594 439.773438 187.933594 445.835938 Z M 187.933594 445.835938 "/>
<path fill-rule="nonzero" fill="rgb(0%, 0%, 0%)" fill-opacity="1" stroke-width="2" stroke-linecap="butt" stroke-linejoin="miter" stroke="rgb(64.709473%, 64.709473%, 64.709473%)" stroke-opacity="1" stroke-miterlimit="4" d="M 93.500001 -30.004227 C 93.500001 -30.004227 93.500001 29.99555 93.500001 29.99555 C 93.500001 46.556043 80.05497 60.000773 63.504777 60.000773 C 63.504777 60.000773 -63.497412 60.000773 -63.497412 60.000773 C -80.058276 60.000773 -93.503306 46.556043 -93.503306 29.99555 C -93.503306 29.99555 -93.503306 -30.004227 -93.503306 -30.004227 C -93.503306 -46.55405 -80.058276 -59.99878 -63.497412 -59.99878 C -63.497412 -59.99878 63.504777 -59.99878 63.504777 -59.99878 C 80.05497 -59.99878 93.500001 -46.55405 93.500001 -30.004227 Z M 93.500001 -30.004227 " transform="matrix(0.366074, 0, 0, 0.366082, 239.549433, 457.183229)"/>
<path fill-rule="nonzero" fill="rgb(19.999695%, 19.999695%, 19.999695%)" fill-opacity="1" d="M 327.40625 445.835938 C 327.40625 445.835938 327.40625 467.800781 327.40625 467.800781 C 327.40625 473.859375 322.484375 478.78125 316.425781 478.78125 C 316.425781 478.78125 297.390625 478.78125 297.390625 478.78125 C 291.328125 478.78125 286.40625 473.859375 286.40625 467.800781 C 286.40625 467.800781 286.40625 445.835938 286.40625 445.835938 C 286.40625 439.773438 291.328125 434.851562 297.390625 434.851562 C 297.390625 434.851562 316.425781 434.851562 316.425781 434.851562 C 322.484375 434.851562 327.40625 439.773438 327.40625 445.835938 Z M 327.40625 445.835938 "/>
<path fill-rule="nonzero" fill="rgb(19.999695%, 19.999695%, 19.999695%)" fill-opacity="1" d="M 375.730469 445.835938 C 375.730469 445.835938 375.730469 467.800781 375.730469 467.800781 C 375.730469 473.859375 370.808594 478.78125 364.746094 478.78125 C 364.746094 478.78125 345.710938 478.78125 345.710938 478.78125 C 339.648438 478.78125 334.730469 473.859375 334.730469 467.800781 C 334.730469 467.800781 334.730469 445.835938 334.730469 445.835938 C 334.730469 439.773438 339.648438 434.851562 345.710938 434.851562 C 345.710938 434.851562 364.746094 434.851562 364.746094 434.851562 C 370.808594 434.851562 375.730469 439.773438 375.730469 445.835938 Z M 375.730469 445.835938 "/>
<path fill-rule="nonzero" fill="rgb(19.999695%, 19.999695%, 19.999695%)" fill-opacity="1" d="M 424.417969 445.835938 C 424.417969 445.835938 424.417969 467.800781 424.417969 467.800781 C 424.417969 473.859375 419.496094 478.78125 413.433594 478.78125 C 413.433594 478.78125 394.398438 478.78125 394.398438 478.78125 C 388.335938 478.78125 383.417969 473.859375 383.417969 467.800781 C 383.417969 467.800781 383.417969 445.835938 383.417969 445.835938 C 383.417969 439.773438 388.335938 434.851562 394.398438 434.851562 C 394.398438 434.851562 413.433594 434.851562 413.433594 434.851562 C 419.496094 434.851562 424.417969 439.773438 424.417969 445.835938 Z M 424.417969 445.835938 "/>
<path fill-rule="nonzero" fill="rgb(19.999695%, 19.999695%, 19.999695%)" fill-opacity="1" d="M 472.738281 445.835938 C 472.738281 445.835938 472.738281 467.800781 472.738281 467.800781 C 472.738281 473.859375 467.816406 478.78125 461.757812 478.78125 C 461.757812 478.78125 442.71875 478.78125 442.71875 478.78125 C 436.660156 478.78125 431.738281 473.859375 431.738281 467.800781 C 431.738281 467.800781 431.738281 445.835938 431.738281 445.835938 C 431.738281 439.773438 436.660156 434.851562 442.71875 434.851562 C 442.71875 434.851562 461.757812 434.851562 461.757812 434.851562 C 467.816406 434.851562 472.738281 439.773438 472.738281 445.835938 Z M 472.738281 445.835938 "/>
<path fill-rule="nonzero" fill="rgb(19.999695%, 19.999695%, 19.999695%)" fill-opacity="1" d="M 525.453125 445.835938 C 525.453125 445.835938 525.453125 467.800781 525.453125 467.800781 C 525.453125 473.859375 520.53125 478.78125 514.472656 478.78125 C 514.472656 478.78125 495.433594 478.78125 495.433594 478.78125 C 489.375 478.78125 484.453125 473.859375 484.453125 467.800781 C 484.453125 467.800781 484.453125 445.835938 484.453125 445.835938 C 484.453125 439.773438 489.375 434.851562 495.433594 434.851562 C 495.433594 434.851562 514.472656 434.851562 514.472656 434.851562 C 520.53125 434.851562 525.453125 439.773438 525.453125 445.835938 Z M 525.453125 445.835938 "/>
<path fill-rule="nonzero" fill="rgb(81.17981%, 73.329163%, 93.728638%)" fill-opacity="1" d="M 588.050781 456.816406 C 588.050781 467.726562 579.195312 476.585938 568.285156 476.585938 C 568.285156 476.585938 563.160156 476.585938 563.160156 476.585938 C 552.25 476.585938 543.390625 467.726562 543.390625 456.816406 C 543.390625 445.90625 552.25 437.046875 563.160156 437.046875 C 563.160156 437.046875 568.285156 437.046875 568.285156 437.046875 C 579.195312 437.046875 588.050781 445.90625 588.050781 456.816406 Z M 588.050781 456.816406 "/>
<path fill-rule="nonzero" fill="rgb(72.549438%, 72.549438%, 72.549438%)" fill-opacity="1" d="M 40.359375 342.183594 C 40.953125 341.988281 41.464844 341.699219 41.902344 341.316406 C 42.335938 340.933594 42.726562 340.46875 43.0625 339.917969 C 43.0625 339.917969 43.199219 342.234375 43.199219 342.234375 C 43.199219 342.234375 44.753906 342.234375 44.753906 342.234375 C 44.753906 342.234375 44.753906 334.703125 44.753906 334.703125 C 44.753906 334.703125 38.949219 334.703125 38.949219 334.703125 C 38.949219 334.703125 38.949219 336.03125 38.949219 336.03125 C 38.949219 336.03125 43.023438 336.03125 43.023438 336.03125 C 42.910156 337.546875 42.476562 338.753906 41.710938 339.636719 C 40.945312 340.519531 39.8125 340.964844 38.308594 340.964844 C 37.339844 340.964844 36.488281 340.734375 35.742188 340.277344 C 34.996094 339.824219 34.414062 339.160156 34 338.296875 C 33.585938 337.429688 33.375 336.402344 33.375 335.203125 C 33.375 334.011719 33.585938 332.984375 34 332.125 C 34.414062 331.265625 35.007812 330.605469 35.78125 330.140625 C 36.554688 329.679688 37.457031 329.445312 38.488281 329.445312 C 39.601562 329.445312 40.511719 329.695312 41.210938 330.191406 C 41.90625 330.691406 42.347656 331.359375 42.539062 332.207031 C 42.539062 332.207031 44.488281 332.207031 44.488281 332.207031 C 44.191406 330.851562 43.515625 329.792969 42.457031 329.035156 C 41.394531 328.277344 40.074219 327.898438 38.488281 327.898438 C 37.09375 327.898438 35.882812 328.207031 34.855469 328.824219 C 33.828125 329.441406 33.035156 330.300781 32.480469 331.402344 C 31.921875 332.503906 31.644531 333.769531 31.644531 335.203125 C 31.644531 336.65625 31.917969 337.925781 32.46875 339.011719 C 33.019531 340.097656 33.792969 340.949219 34.785156 341.558594 C 35.777344 342.171875 36.933594 342.476562 38.25 342.476562 C 39.066406 342.476562 39.769531 342.375 40.359375 342.183594 Z M 40.359375 342.183594 "/>
<path fill-rule="nonzero" fill="rgb(72.549438%, 72.549438%, 72.549438%)" fill-opacity="1" d="M 48.738281 342.234375 C 48.738281 342.234375 48.738281 337 48.738281 337 C 48.738281 336.355469 48.820312 335.8125 48.992188 335.375 C 49.160156 334.941406 49.394531 334.597656 49.695312 334.339844 C 49.996094 334.085938 50.339844 333.902344 50.730469 333.789062 C 51.121094 333.675781 51.53125 333.617188 51.960938 333.617188 C 51.960938 333.617188 52.585938 333.617188 52.585938 333.617188 C 52.585938 333.617188 52.585938 331.84375 52.585938 331.84375 C 51.9375 331.84375 51.367188 331.933594 50.859375 332.105469 C 50.359375 332.28125 49.925781 332.527344 49.574219 332.851562 C 49.21875 333.171875 48.925781 333.5625 48.699219 334.019531 C 48.699219 334.019531 48.578125 332.085938 48.578125 332.085938 C 48.578125 332.085938 47.046875 332.085938 47.046875 332.085938 C 47.046875 332.085938 47.046875 342.234375 47.046875 342.234375 C 47.046875 342.234375 48.738281 342.234375 48.738281 342.234375 Z M 48.738281 342.234375 "/>
<path fill-rule="nonzero" fill="rgb(72.549438%, 72.549438%, 72.549438%)" fill-opacity="1" d="M 56.027344 329.601562 C 56.253906 329.375 56.367188 329.097656 56.367188 328.761719 C 56.367188 328.429688 56.253906 328.15625 56.027344 327.949219 C 55.796875 327.742188 55.523438 327.632812 55.199219 327.632812 C 54.863281 327.632812 54.585938 327.742188 54.367188 327.949219 C 54.144531 328.15625 54.035156 328.429688 54.035156 328.761719 C 54.035156 329.097656 54.144531 329.375 54.367188 329.601562 C 54.585938 329.820312 54.863281 329.933594 55.199219 329.933594 C 55.523438 329.933594 55.796875 329.820312 56.027344 329.601562 Z M 56.046875 342.234375 C 56.046875 342.234375 56.046875 332.085938 56.046875 332.085938 C 56.046875 332.085938 54.355469 332.085938 54.355469 332.085938 C 54.355469 332.085938 54.355469 342.234375 54.355469 342.234375 C 54.355469 342.234375 56.046875 342.234375 56.046875 342.234375 Z M 56.046875 342.234375 "/>
<path fill-rule="nonzero" fill="rgb(72.549438%, 72.549438%, 72.549438%)" fill-opacity="1" d="M 61.644531 340.519531 C 61.132812 340.199219 60.738281 339.753906 60.457031 339.183594 C 60.175781 338.613281 60.035156 337.9375 60.035156 337.160156 C 60.035156 336.394531 60.175781 335.722656 60.457031 335.144531 C 60.738281 334.566406 61.132812 334.117188 61.644531 333.796875 C 62.15625 333.472656 62.738281 333.3125 63.394531 333.3125 C 64.066406 333.3125 64.660156 333.472656 65.167969 333.796875 C 65.675781 334.117188 66.074219 334.566406 66.355469 335.144531 C 66.640625 335.722656 66.777344 336.394531 66.777344 337.160156 C 66.777344 337.9375 66.640625 338.613281 66.355469 339.183594 C 66.074219 339.753906 65.675781 340.199219 65.167969 340.519531 C 64.660156 340.84375 64.066406 341.003906 63.394531 341.003906 C 62.738281 341.003906 62.15625 340.84375 61.644531 340.519531 Z M 64.828125 342.203125 C 65.296875 342.019531 65.699219 341.785156 66.035156 341.496094 C 66.367188 341.207031 66.644531 340.898438 66.859375 340.558594 C 66.859375 340.558594 66.996094 342.234375 66.996094 342.234375 C 66.996094 342.234375 68.53125 342.234375 68.53125 342.234375 C 68.53125 342.234375 68.53125 327.738281 68.53125 327.738281 C 68.53125 327.738281 66.839844 327.738281 66.839844 327.738281 C 66.839844 327.738281 66.839844 333.757812 66.839844 333.757812 C 66.503906 333.15625 66.023438 332.683594 65.398438 332.347656 C 64.777344 332.011719 64.046875 331.84375 63.210938 331.84375 C 62.234375 331.84375 61.371094 332.070312 60.628906 332.527344 C 59.882812 332.984375 59.304688 333.613281 58.90625 334.410156 C 58.503906 335.207031 58.304688 336.121094 58.304688 337.140625 C 58.304688 338.160156 58.503906 339.070312 58.90625 339.875 C 59.304688 340.683594 59.878906 341.316406 60.617188 341.78125 C 61.355469 342.246094 62.214844 342.476562 63.195312 342.476562 C 63.8125 342.476562 64.355469 342.382812 64.828125 342.203125 Z M 64.828125 342.203125 "/>
<path fill-rule="nonzero" fill="rgb(72.549438%, 72.549438%, 72.549438%)" fill-opacity="1" d="M 77.890625 329.546875 C 77.890625 329.546875 80.769531 329.546875 80.769531 329.546875 C 81.898438 329.546875 82.703125 329.785156 83.1875 330.261719 C 83.671875 330.738281 83.914062 331.410156 83.914062 332.265625 C 83.914062 333.101562 83.671875 333.761719 83.1875 334.261719 C 82.703125 334.757812 81.898438 335.003906 80.769531 335.003906 C 80.769531 335.003906 77.890625 335.003906 77.890625 335.003906 C 77.890625 335.003906 77.890625 329.546875 77.890625 329.546875 Z M 77.890625 342.234375 C 77.890625 342.234375 77.890625 336.433594 77.890625 336.433594 C 77.890625 336.433594 80.789062 336.433594 80.789062 336.433594 C 81.921875 336.433594 82.839844 336.246094 83.550781 335.871094 C 84.261719 335.492188 84.789062 334.996094 85.132812 334.371094 C 85.472656 333.746094 85.644531 333.050781 85.644531 332.285156 C 85.644531 331.496094 85.472656 330.789062 85.132812 330.171875 C 84.789062 329.554688 84.257812 329.0625 83.539062 328.691406 C 82.820312 328.324219 81.90625 328.140625 80.789062 328.140625 C 80.789062 328.140625 76.203125 328.140625 76.203125 328.140625 C 76.203125 328.140625 76.203125 342.234375 76.203125 342.234375 C 76.203125 342.234375 77.890625 342.234375 77.890625 342.234375 Z M 77.890625 342.234375 "/>
<path fill-rule="nonzero" fill="rgb(72.549438%, 72.549438%, 72.549438%)" fill-opacity="1" d="M 89.167969 342.234375 C 89.167969 342.234375 89.167969 337 89.167969 337 C 89.167969 336.355469 89.25 335.8125 89.417969 335.375 C 89.589844 334.941406 89.824219 334.597656 90.121094 334.339844 C 90.425781 334.085938 90.769531 333.902344 91.160156 333.789062 C 91.550781 333.675781 91.960938 333.617188 92.386719 333.617188 C 92.386719 333.617188 93.015625 333.617188 93.015625 333.617188 C 93.015625 333.617188 93.015625 331.84375 93.015625 331.84375 C 92.367188 331.84375 91.796875 331.933594 91.289062 332.105469 C 90.789062 332.28125 90.355469 332.527344 90 332.851562 C 89.648438 333.171875 89.355469 333.5625 89.125 334.019531 C 89.125 334.019531 89.007812 332.085938 89.007812 332.085938 C 89.007812 332.085938 87.476562 332.085938 87.476562 332.085938 C 87.476562 332.085938 87.476562 342.234375 87.476562 342.234375 C 87.476562 342.234375 89.167969 342.234375 89.167969 342.234375 Z M 89.167969 342.234375 "/>
<path fill-rule="nonzero" fill="rgb(72.549438%, 72.549438%, 72.549438%)" fill-opacity="1" d="M 101.15625 342.0625 C 101.753906 341.785156 102.257812 341.410156 102.660156 340.921875 C 103.0625 340.441406 103.34375 339.898438 103.5 339.292969 C 103.5 339.292969 101.832031 339.292969 101.832031 339.292969 C 101.628906 339.832031 101.296875 340.257812 100.835938 340.570312 C 100.371094 340.886719 99.785156 341.042969 99.074219 341.042969 C 98.507812 341.042969 97.984375 340.90625 97.492188 340.621094 C 97.003906 340.339844 96.609375 339.917969 96.304688 339.351562 C 96.003906 338.789062 95.855469 338.09375 95.855469 337.257812 C 95.855469 337.257812 95.855469 336.695312 95.855469 336.695312 C 95.855469 335.945312 96 335.316406 96.296875 334.8125 C 96.589844 334.3125 96.980469 333.925781 97.472656 333.667969 C 97.960938 333.402344 98.496094 333.273438 99.074219 333.273438 C 99.929688 333.273438 100.644531 333.535156 101.214844 334.058594 C 101.789062 334.582031 102.089844 335.308594 102.136719 336.234375 C 102.136719 336.234375 95.46875 336.234375 95.46875 336.234375 C 95.46875 336.234375 95.46875 337.542969 95.46875 337.542969 C 95.46875 337.542969 103.765625 337.542969 103.765625 337.542969 C 103.777344 337.355469 103.785156 337.183594 103.785156 337.039062 C 103.785156 336.890625 103.785156 336.75 103.785156 336.613281 C 103.785156 335.757812 103.601562 334.964844 103.230469 334.25 C 102.859375 333.53125 102.332031 332.953125 101.640625 332.507812 C 100.949219 332.0625 100.105469 331.84375 99.113281 331.84375 C 98.148438 331.84375 97.292969 332.0625 96.546875 332.507812 C 95.800781 332.953125 95.222656 333.566406 94.8125 334.363281 C 94.402344 335.152344 94.203125 336.085938 94.203125 337.160156 C 94.203125 338.222656 94.40625 339.152344 94.824219 339.949219 C 95.242188 340.746094 95.8125 341.367188 96.546875 341.8125 C 97.277344 342.253906 98.121094 342.476562 99.074219 342.476562 C 99.867188 342.476562 100.5625 342.335938 101.15625 342.0625 Z M 101.15625 342.0625 "/>
<path fill-rule="nonzero" fill="rgb(72.549438%, 72.549438%, 72.549438%)" fill-opacity="1" d="M 111.613281 342.082031 C 112.191406 341.820312 112.640625 341.453125 112.953125 340.984375 C 113.269531 340.515625 113.425781 339.964844 113.425781 339.335938 C 113.425781 338.609375 113.257812 338.050781 112.914062 337.652344 C 112.574219 337.257812 112.128906 336.957031 111.578125 336.757812 C 111.027344 336.554688 110.414062 336.394531 109.746094 336.273438 C 109.222656 336.179688 108.78125 336.058594 108.425781 335.910156 C 108.070312 335.765625 107.800781 335.585938 107.621094 335.375 C 107.4375 335.167969 107.347656 334.929688 107.347656 334.664062 C 107.347656 334.246094 107.511719 333.914062 107.839844 333.65625 C 108.171875 333.398438 108.648438 333.273438 109.28125 333.273438 C 109.925781 333.273438 110.433594 333.417969 110.800781 333.707031 C 111.171875 333.996094 111.386719 334.394531 111.457031 334.90625 C 111.457031 334.90625 113.125 334.90625 113.125 334.90625 C 113.007812 333.914062 112.609375 333.15625 111.941406 332.628906 C 111.265625 332.105469 110.386719 331.84375 109.300781 331.84375 C 108.5625 331.84375 107.914062 331.972656 107.355469 332.226562 C 106.800781 332.480469 106.375 332.832031 106.078125 333.28125 C 105.785156 333.734375 105.636719 334.246094 105.636719 334.824219 C 105.636719 335.292969 105.734375 335.6875 105.929688 336.011719 C 106.125 336.335938 106.386719 336.605469 106.722656 336.828125 C 107.0625 337.050781 107.441406 337.226562 107.875 337.359375 C 108.300781 337.496094 108.738281 337.601562 109.179688 337.683594 C 109.71875 337.777344 110.171875 337.886719 110.550781 338.015625 C 110.925781 338.144531 111.210938 338.3125 111.40625 338.527344 C 111.601562 338.746094 111.699219 339.058594 111.699219 339.472656 C 111.699219 339.753906 111.617188 340.019531 111.464844 340.261719 C 111.3125 340.5 111.082031 340.691406 110.773438 340.835938 C 110.460938 340.972656 110.074219 341.042969 109.605469 341.042969 C 109.066406 341.042969 108.613281 340.957031 108.242188 340.773438 C 107.875 340.59375 107.585938 340.355469 107.367188 340.058594 C 107.152344 339.761719 107.011719 339.441406 106.945312 339.09375 C 106.945312 339.09375 105.214844 339.09375 105.214844 339.09375 C 105.292969 339.777344 105.519531 340.371094 105.890625 340.875 C 106.257812 341.375 106.753906 341.769531 107.378906 342.054688 C 108 342.335938 108.738281 342.476562 109.582031 342.476562 C 110.363281 342.476562 111.039062 342.34375 111.613281 342.082031 Z M 111.613281 342.082031 "/>
<path fill-rule="nonzero" fill="rgb(72.549438%, 72.549438%, 72.549438%)" fill-opacity="1" d="M 122.097656 342.0625 C 122.695312 341.785156 123.195312 341.410156 123.597656 340.921875 C 124 340.441406 124.28125 339.898438 124.441406 339.292969 C 124.441406 339.292969 122.769531 339.292969 122.769531 339.292969 C 122.570312 339.832031 122.238281 340.257812 121.773438 340.570312 C 121.308594 340.886719 120.722656 341.042969 120.015625 341.042969 C 119.445312 341.042969 118.921875 340.90625 118.433594 340.621094 C 117.941406 340.339844 117.546875 339.917969 117.242188 339.351562 C 116.941406 338.789062 116.792969 338.09375 116.792969 337.257812 C 116.792969 337.257812 116.792969 336.695312 116.792969 336.695312 C 116.792969 335.945312 116.9375 335.316406 117.234375 334.8125 C 117.527344 334.3125 117.921875 333.925781 118.410156 333.667969 C 118.902344 333.402344 119.4375 333.273438 120.015625 333.273438 C 120.871094 333.273438 121.585938 333.535156 122.15625 334.058594 C 122.726562 334.582031 123.03125 335.308594 123.074219 336.234375 C 123.074219 336.234375 116.410156 336.234375 116.410156 336.234375 C 116.410156 336.234375 116.410156 337.542969 116.410156 337.542969 C 116.410156 337.542969 124.703125 337.542969 124.703125 337.542969 C 124.71875 337.355469 124.726562 337.183594 124.726562 337.039062 C 124.726562 336.890625 124.726562 336.75 124.726562 336.613281 C 124.726562 335.757812 124.539062 334.964844 124.167969 334.25 C 123.800781 333.53125 123.273438 332.953125 122.582031 332.507812 C 121.890625 332.0625 121.046875 331.84375 120.050781 331.84375 C 119.089844 331.84375 118.230469 332.0625 117.484375 332.507812 C 116.742188 332.953125 116.164062 333.566406 115.753906 334.363281 C 115.34375 335.152344 115.140625 336.085938 115.140625 337.160156 C 115.140625 338.222656 115.347656 339.152344 115.765625 339.949219 C 116.179688 340.746094 116.753906 341.367188 117.484375 341.8125 C 118.21875 342.253906 119.058594 342.476562 120.015625 342.476562 C 120.804688 342.476562 121.5 342.335938 122.097656 342.0625 Z M 122.097656 342.0625 "/>
<path fill-rule="nonzero" fill="rgb(72.549438%, 72.549438%, 72.549438%)" fill-opacity="1" d="M 132.253906 342.234375 C 132.253906 342.234375 132.253906 340.785156 132.253906 340.785156 C 132.253906 340.785156 131.167969 340.785156 131.167969 340.785156 C 130.523438 340.785156 130.074219 340.675781 129.820312 340.449219 C 129.5625 340.230469 129.433594 339.800781 129.433594 339.171875 C 129.433594 339.171875 129.433594 333.511719 129.433594 333.511719 C 129.433594 333.511719 132.375 333.511719 132.375 333.511719 C 132.375 333.511719 132.375 332.085938 132.375 332.085938 C 132.375 332.085938 129.433594 332.085938 129.433594 332.085938 C 129.433594 332.085938 129.433594 329.628906 129.433594 329.628906 C 129.433594 329.628906 127.96875 329.628906 127.96875 329.628906 C 127.96875 329.628906 127.742188 332.085938 127.742188 332.085938 C 127.742188 332.085938 125.972656 332.085938 125.972656 332.085938 C 125.972656 332.085938 125.972656 333.511719 125.972656 333.511719 C 125.972656 333.511719 127.742188 333.511719 127.742188 333.511719 C 127.742188 333.511719 127.742188 339.171875 127.742188 339.171875 C 127.742188 339.9375 127.859375 340.546875 128.09375 340.996094 C 128.328125 341.445312 128.671875 341.765625 129.113281 341.953125 C 129.554688 342.136719 130.078125 342.234375 130.683594 342.234375 C 130.683594 342.234375 132.253906 342.234375 132.253906 342.234375 Z M 132.253906 342.234375 "/>
<path fill-rule="nonzero" fill="rgb(72.549438%, 72.549438%, 72.549438%)" fill-opacity="1" d="M 142.707031 342.234375 C 142.707031 342.234375 142.707031 328.140625 142.707031 328.140625 C 142.707031 328.140625 141.554688 328.140625 141.554688 328.140625 C 141.554688 328.140625 138.578125 329.429688 138.578125 329.429688 C 138.578125 329.429688 138.578125 330.636719 138.578125 330.636719 C 138.578125 330.636719 140.992188 330.03125 140.992188 330.03125 C 140.992188 330.03125 140.992188 342.234375 140.992188 342.234375 C 140.992188 342.234375 142.707031 342.234375 142.707031 342.234375 Z M 142.707031 342.234375 "/>
<path fill-rule="nonzero" fill="rgb(72.549438%, 72.549438%, 72.549438%)" fill-opacity="1" d="M 381.367188 338.894531 C 381.367188 338.894531 380.75 336.929688 380.75 336.929688 C 380.75 336.929688 373.523438 336.929688 373.523438 336.929688 C 373.523438 336.929688 372.910156 338.894531 372.910156 338.894531 C 372.910156 338.894531 381.367188 338.894531 381.367188 338.894531 Z M 372.667969 343.148438 C 372.667969 343.148438 377.191406 328.890625 377.191406 328.890625 C 377.191406 328.890625 381.695312 343.148438 381.695312 343.148438 C 381.695312 343.148438 384.046875 343.148438 384.046875 343.148438 C 384.046875 343.148438 378.402344 325.941406 378.402344 325.941406 C 378.402344 325.941406 376.007812 325.941406 376.007812 325.941406 C 376.007812 325.941406 370.363281 343.148438 370.363281 343.148438 C 370.363281 343.148438 372.667969 343.148438 372.667969 343.148438 Z M 372.667969 343.148438 "/>
<path fill-rule="nonzero" fill="rgb(72.549438%, 72.549438%, 72.549438%)" fill-opacity="1" d="M 543.359375 335.382812 C 543.359375 335.382812 543.359375 333.996094 543.359375 333.996094 C 543.359375 333.996094 535.304688 333.996094 535.304688 333.996094 C 535.304688 333.996094 535.304688 335.382812 535.304688 335.382812 C 535.304688 335.382812 543.359375 335.382812 543.359375 335.382812 Z M 535.625 341.867188 C 535.625 341.867188 535.625 327.773438 535.625 327.773438 C 535.625 327.773438 533.9375 327.773438 533.9375 327.773438 C 533.9375 327.773438 533.9375 341.867188 533.9375 341.867188 C 533.9375 341.867188 535.625 341.867188 535.625 341.867188 Z M 544.625 341.867188 C 544.625 341.867188 544.625 327.773438 544.625 327.773438 C 544.625 327.773438 542.933594 327.773438 542.933594 327.773438 C 542.933594 327.773438 542.933594 341.867188 542.933594 341.867188 C 542.933594 341.867188 544.625 341.867188 544.625 341.867188 Z M 544.625 341.867188 "/>
<path fill-rule="nonzero" fill="rgb(72.549438%, 72.549438%, 72.549438%)" fill-opacity="1" d="M 553.777344 341.695312 C 554.375 341.421875 554.875 341.042969 555.277344 340.558594 C 555.679688 340.078125 555.960938 339.53125 556.121094 338.925781 C 556.121094 338.925781 554.449219 338.925781 554.449219 338.925781 C 554.25 339.464844 553.917969 339.890625 553.453125 340.207031 C 552.988281 340.519531 552.40625 340.675781 551.695312 340.675781 C 551.125 340.675781 550.601562 340.539062 550.113281 340.257812 C 549.621094 339.976562 549.226562 339.550781 548.921875 338.984375 C 548.621094 338.421875 548.472656 337.726562 548.472656 336.890625 C 548.472656 336.890625 548.472656 336.328125 548.472656 336.328125 C 548.472656 335.578125 548.621094 334.953125 548.914062 334.445312 C 549.207031 333.945312 549.601562 333.5625 550.089844 333.300781 C 550.582031 333.039062 551.117188 332.90625 551.695312 332.90625 C 552.550781 332.90625 553.265625 333.167969 553.835938 333.691406 C 554.40625 334.214844 554.710938 334.941406 554.753906 335.867188 C 554.753906 335.867188 548.089844 335.867188 548.089844 335.867188 C 548.089844 335.867188 548.089844 337.179688 548.089844 337.179688 C 548.089844 337.179688 556.382812 337.179688 556.382812 337.179688 C 556.398438 336.988281 556.40625 336.820312 556.40625 336.671875 C 556.40625 336.527344 556.40625 336.382812 556.40625 336.246094 C 556.40625 335.390625 556.21875 334.601562 555.847656 333.882812 C 555.480469 333.164062 554.953125 332.585938 554.261719 332.140625 C 553.570312 331.699219 552.726562 331.476562 551.730469 331.476562 C 550.769531 331.476562 549.910156 331.699219 549.164062 332.140625 C 548.421875 332.585938 547.84375 333.203125 547.433594 333.996094 C 547.023438 334.789062 546.820312 335.722656 546.820312 336.792969 C 546.820312 337.855469 547.027344 338.785156 547.445312 339.582031 C 547.863281 340.382812 548.433594 341 549.164062 341.445312 C 549.898438 341.890625 550.738281 342.109375 551.695312 342.109375 C 552.484375 342.109375 553.179688 341.96875 553.777344 341.695312 Z M 553.777344 341.695312 "/>
<path fill-rule="nonzero" fill="rgb(72.549438%, 72.549438%, 72.549438%)" fill-opacity="1" d="M 560.066406 341.867188 C 560.066406 341.867188 560.066406 327.371094 560.066406 327.371094 C 560.066406 327.371094 558.375 327.371094 558.375 327.371094 C 558.375 327.371094 558.375 341.867188 558.375 341.867188 C 558.375 341.867188 560.066406 341.867188 560.066406 341.867188 Z M 560.066406 341.867188 "/>
<path fill-rule="nonzero" fill="rgb(72.549438%, 72.549438%, 72.549438%)" fill-opacity="1" d="M 565.90625 340.152344 C 565.398438 339.832031 565.003906 339.390625 564.722656 338.816406 C 564.433594 338.246094 564.296875 337.582031 564.296875 336.8125 C 564.296875 336.035156 564.433594 335.359375 564.722656 334.78125 C 565.003906 334.203125 565.398438 333.75 565.90625 333.429688 C 566.414062 333.105469 567.007812 332.945312 567.679688 332.945312 C 568.335938 332.945312 568.917969 333.105469 569.429688 333.429688 C 569.941406 333.75 570.339844 334.203125 570.628906 334.78125 C 570.917969 335.359375 571.0625 336.035156 571.0625 336.8125 C 571.0625 337.582031 570.917969 338.246094 570.628906 338.816406 C 570.339844 339.390625 569.941406 339.832031 569.429688 340.152344 C 568.917969 340.476562 568.335938 340.636719 567.679688 340.636719 C 567.007812 340.636719 566.414062 340.476562 565.90625 340.152344 Z M 564.257812 346.296875 C 564.257812 346.296875 564.257812 340.195312 564.257812 340.195312 C 564.59375 340.796875 565.074219 341.269531 565.695312 341.609375 C 566.320312 341.941406 567.042969 342.109375 567.859375 342.109375 C 568.855469 342.109375 569.71875 341.882812 570.457031 341.425781 C 571.195312 340.96875 571.769531 340.339844 572.179688 339.542969 C 572.589844 338.746094 572.792969 337.832031 572.792969 336.8125 C 572.792969 335.78125 572.589844 334.863281 572.179688 334.066406 C 571.769531 333.269531 571.199219 332.636719 570.46875 332.171875 C 569.734375 331.707031 568.871094 331.476562 567.878906 331.476562 C 567.261719 331.476562 566.722656 331.570312 566.257812 331.75 C 565.796875 331.933594 565.398438 332.167969 565.0625 332.457031 C 564.726562 332.746094 564.449219 333.046875 564.238281 333.371094 C 564.238281 333.371094 564.09375 331.71875 564.09375 331.71875 C 564.09375 331.71875 562.566406 331.71875 562.566406 331.71875 C 562.566406 331.71875 562.566406 346.296875 562.566406 346.296875 C 562.566406 346.296875 564.257812 346.296875 564.257812 346.296875 Z M 564.257812 346.296875 "/>
<path fill-rule="nonzero" fill="rgb(100%, 100%, 100%)" fill-opacity="1" d="M 65.273438 396.210938 C 65.273438 396.210938 65.273438 394.652344 65.273438 394.652344 C 65.273438 394.652344 55.234375 394.652344 55.234375 394.652344 C 55.234375 394.652344 55.234375 396.210938 55.234375 396.210938 C 55.234375 396.210938 65.273438 396.210938 65.273438 396.210938 Z M 61.078125 400.230469 C 61.078125 400.230469 61.078125 390.65625 61.078125 390.65625 C 61.078125 390.65625 59.429688 390.65625 59.429688 390.65625 C 59.429688 390.65625 59.429688 400.230469 59.429688 400.230469 C 59.429688 400.230469 61.078125 400.230469 61.078125 400.230469 Z M 61.078125 400.230469 "/>
<path fill-rule="nonzero" fill="rgb(100%, 100%, 100%)" fill-opacity="1" d="M 148.105469 396.097656 C 148.105469 396.097656 158.554688 396.097656 158.554688 396.097656 C 158.554688 396.097656 158.554688 394.21875 158.554688 394.21875 C 158.554688 394.21875 148.105469 394.21875 148.105469 394.21875 C 148.105469 394.21875 148.105469 396.097656 148.105469 396.097656 Z M 148.105469 396.097656 "/>
<path fill-rule="nonzero" fill="rgb(72.549438%, 72.549438%, 72.549438%)" fill-opacity="1" d="M 42.148438 464.140625 C 42.148438 464.140625 42.148438 462.730469 42.148438 462.730469 C 42.148438 462.730469 35.28125 462.730469 35.28125 462.730469 C 35.789062 462.3125 36.339844 461.851562 36.921875 461.34375 C 37.507812 460.828125 38.078125 460.289062 38.632812 459.710938 C 39.191406 459.128906 39.699219 458.53125 40.164062 457.90625 C 40.625 457.28125 40.992188 456.640625 41.261719 455.984375 C 41.527344 455.328125 41.664062 454.667969 41.664062 454.007812 C 41.664062 453.070312 41.476562 452.292969 41.109375 451.671875 C 40.738281 451.058594 40.234375 450.589844 39.589844 450.273438 C 38.945312 449.960938 38.199219 449.804688 37.355469 449.804688 C 36.496094 449.804688 35.730469 449.980469 35.058594 450.328125 C 34.386719 450.675781 33.859375 451.183594 33.480469 451.847656 C 33.09375 452.511719 32.898438 453.304688 32.886719 454.234375 C 32.886719 454.234375 34.515625 454.234375 34.515625 454.234375 C 34.515625 453.695312 34.617188 453.203125 34.828125 452.753906 C 35.035156 452.304688 35.347656 451.941406 35.761719 451.667969 C 36.179688 451.390625 36.703125 451.253906 37.332031 451.253906 C 37.976562 451.253906 38.492188 451.386719 38.875 451.65625 C 39.253906 451.921875 39.535156 452.269531 39.710938 452.691406 C 39.886719 453.117188 39.96875 453.574219 39.96875 454.070312 C 39.96875 454.742188 39.777344 455.441406 39.398438 456.164062 C 39.015625 456.890625 38.488281 457.632812 37.816406 458.390625 C 37.148438 459.148438 36.382812 459.910156 35.523438 460.675781 C 34.660156 461.441406 33.75 462.199219 32.785156 462.949219 C 32.785156 462.949219 32.785156 464.140625 32.785156 464.140625 C 32.785156 464.140625 42.148438 464.140625 42.148438 464.140625 Z M 42.148438 464.140625 "/>
<path fill-rule="nonzero" fill="rgb(72.549438%, 72.549438%, 72.549438%)" fill-opacity="1" d="M 104.316406 451.914062 C 104.316406 451.914062 104.316406 459.628906 104.316406 459.628906 C 104.316406 459.628906 98.960938 459.628906 98.960938 459.628906 C 98.960938 459.628906 104.316406 451.914062 104.316406 451.914062 Z M 105.910156 464.140625 C 105.910156 464.140625 105.910156 461.117188 105.910156 461.117188 C 105.910156 461.117188 108.003906 461.117188 108.003906 461.117188 C 108.003906 461.117188 108.003906 459.628906 108.003906 459.628906 C 108.003906 459.628906 105.910156 459.628906 105.910156 459.628906 C 105.910156 459.628906 105.910156 450.042969 105.910156 450.042969 C 105.910156 450.042969 103.9375 450.042969 103.9375 450.042969 C 103.9375 450.042969 97.089844 459.808594 97.089844 459.808594 C 97.089844 459.808594 97.089844 461.117188 97.089844 461.117188 C 97.089844 461.117188 104.238281 461.117188 104.238281 461.117188 C 104.238281 461.117188 104.238281 464.140625 104.238281 464.140625 C 104.238281 464.140625 105.910156 464.140625 105.910156 464.140625 Z M 105.910156 464.140625 "/>
<path fill-rule="nonzero" fill="rgb(72.549438%, 72.549438%, 72.549438%)" fill-opacity="1" d="M 226.871094 464.140625 C 226.871094 464.140625 226.871094 462.730469 226.871094 462.730469 C 226.871094 462.730469 220.003906 462.730469 220.003906 462.730469 C 220.511719 462.3125 221.058594 461.851562 221.640625 461.34375 C 222.226562 460.828125 222.796875 460.289062 223.355469 459.710938 C 223.910156 459.128906 224.421875 458.53125 224.886719 457.90625 C 225.347656 457.28125 225.710938 456.640625 225.984375 455.984375 C 226.25 455.328125 226.386719 454.667969 226.386719 454.007812 C 226.386719 453.070312 226.199219 452.292969 225.828125 451.671875 C 225.460938 451.058594 224.953125 450.589844 224.3125 450.273438 C 223.667969 449.960938 222.917969 449.804688 222.078125 449.804688 C 221.21875 449.804688 220.453125 449.980469 219.78125 450.328125 C 219.109375 450.675781 218.582031 451.183594 218.199219 451.847656 C 217.816406 452.511719 217.617188 453.304688 217.609375 454.234375 C 217.609375 454.234375 219.238281 454.234375 219.238281 454.234375 C 219.238281 453.695312 219.339844 453.203125 219.546875 452.753906 C 219.757812 452.304688 220.066406 451.941406 220.484375 451.667969 C 220.902344 451.390625 221.425781 451.253906 222.054688 451.253906 C 222.699219 451.253906 223.210938 451.386719 223.597656 451.65625 C 223.976562 451.921875 224.253906 452.269531 224.429688 452.691406 C 224.605469 453.117188 224.691406 453.574219 224.691406 454.070312 C 224.691406 454.742188 224.5 455.441406 224.121094 456.164062 C 223.734375 456.890625 223.207031 457.632812 222.539062 458.390625 C 221.867188 459.148438 221.105469 459.910156 220.242188 460.675781 C 219.382812 461.441406 218.472656 462.199219 217.503906 462.949219 C 217.503906 462.949219 217.503906 464.140625 217.503906 464.140625 C 217.503906 464.140625 226.871094 464.140625 226.871094 464.140625 Z M 226.871094 464.140625 "/>
<path fill-rule="nonzero" fill="rgb(72.549438%, 72.549438%, 72.549438%)" fill-opacity="1" d="M 232.246094 462.195312 C 231.613281 461.734375 231.117188 461.066406 230.753906 460.203125 C 230.394531 459.335938 230.210938 458.300781 230.210938 457.089844 C 230.210938 455.882812 230.394531 454.847656 230.753906 453.980469 C 231.117188 453.117188 231.613281 452.453125 232.246094 451.996094 C 232.875 451.542969 233.59375 451.3125 234.398438 451.3125 C 235.203125 451.3125 235.921875 451.542969 236.554688 451.996094 C 237.183594 452.453125 237.679688 453.117188 238.042969 453.980469 C 238.402344 454.847656 238.585938 455.882812 238.585938 457.089844 C 238.585938 458.300781 238.402344 459.335938 238.042969 460.203125 C 237.679688 461.066406 237.183594 461.734375 236.554688 462.195312 C 235.921875 462.660156 235.203125 462.890625 234.398438 462.890625 C 233.59375 462.890625 232.875 462.660156 232.246094 462.195312 Z M 237.578125 463.464844 C 238.449219 462.855469 239.128906 462 239.601562 460.90625 C 240.078125 459.8125 240.316406 458.542969 240.316406 457.089844 C 240.316406 455.640625 240.078125 454.371094 239.601562 453.277344 C 239.128906 452.183594 238.449219 451.328125 237.578125 450.71875 C 236.707031 450.105469 235.652344 449.804688 234.417969 449.804688 C 233.183594 449.804688 232.121094 450.105469 231.226562 450.71875 C 230.335938 451.328125 229.652344 452.183594 229.183594 453.277344 C 228.710938 454.371094 228.476562 455.640625 228.476562 457.089844 C 228.476562 458.542969 228.710938 459.8125 229.183594 460.90625 C 229.652344 462 230.335938 462.855469 231.226562 463.464844 C 232.121094 464.078125 233.183594 464.378906 234.417969 464.378906 C 235.652344 464.378906 236.707031 464.078125 237.578125 463.464844 Z M 237.578125 463.464844 "/>
<path fill-rule="nonzero" fill="rgb(5.488586%, 5.488586%, 5.488586%)" fill-opacity="1" d="M 219.503906 403.003906 C 219.503906 403.003906 222.78125 397.324219 222.78125 397.324219 C 222.78125 397.324219 226.265625 403.003906 226.265625 403.003906 C 226.265625 403.003906 228.179688 403.003906 228.179688 403.003906 C 228.179688 403.003906 223.851562 395.957031 223.851562 395.957031 C 223.851562 395.957031 228.160156 388.910156 228.160156 388.910156 C 228.160156 388.910156 226.265625 388.910156 226.265625 388.910156 C 226.265625 388.910156 222.964844 394.527344 222.964844 394.527344 C 222.964844 394.527344 219.503906 388.910156 219.503906 388.910156 C 219.503906 388.910156 217.585938 388.910156 217.585938 388.910156 C 217.585938 388.910156 221.894531 395.894531 221.894531 395.894531 C 221.894531 395.894531 217.585938 403.003906 217.585938 403.003906 C 217.585938 403.003906 219.503906 403.003906 219.503906 403.003906 Z M 219.503906 403.003906 "/>
<path fill-rule="nonzero" fill="rgb(5.488586%, 5.488586%, 5.488586%)" fill-opacity="1" d="M 261.445312 403.003906 C 261.445312 403.003906 261.445312 397.648438 261.445312 397.648438 C 261.445312 397.648438 266.015625 388.910156 266.015625 388.910156 C 266.015625 388.910156 264.125 388.910156 264.125 388.910156 C 264.125 388.910156 260.355469 396.542969 260.355469 396.542969 C 260.355469 396.542969 260.859375 396.542969 260.859375 396.542969 C 260.859375 396.542969 257.078125 388.910156 257.078125 388.910156 C 257.078125 388.910156 255.164062 388.910156 255.164062 388.910156 C 255.164062 388.910156 259.753906 397.648438 259.753906 397.648438 C 259.753906 397.648438 259.753906 403.003906 259.753906 403.003906 C 259.753906 403.003906 261.445312 403.003906 261.445312 403.003906 Z M 261.445312 403.003906 "/>
<path fill="none" stroke-width="28.799999" stroke-linecap="round" stroke-linejoin="round" stroke="rgb(72.158813%, 72.158813%, 72.158813%)" stroke-opacity="1" stroke-miterlimit="4" d="M -91.60797 6.922615 C -91.60797 -43.568141 -50.713715 -84.699927 0.0166222 -84.699927 C 50.508509 -84.699927 91.581602 -43.746975 91.581602 6.922615 C 91.581602 6.922615 91.581602 84.655728 91.581602 84.655728 " transform="matrix(0.0655272, 0, 0, 0.0655287, 360.170786, 389.667464)"/>
<path fill-rule="nonzero" fill="rgb(72.158813%, 72.158813%, 72.158813%)" fill-opacity="1" d="M 361.769531 402.867188 C 361.769531 403.757812 361.039062 404.476562 360.144531 404.464844 C 359.265625 404.449219 358.574219 403.683594 358.574219 402.800781 C 358.574219 401.820312 358.574219 400.199219 358.574219 399.230469 C 358.574219 398.4375 359.125 397.730469 359.90625 397.605469 C 360.902344 397.441406 361.769531 398.210938 361.769531 399.191406 C 361.769531 399.191406 361.769531 402.867188 361.769531 402.867188 Z M 369.605469 394.800781 C 369.605469 394.800781 350.746094 394.800781 350.746094 394.800781 C 349.96875 394.800781 349.324219 395.429688 349.324219 396.222656 C 349.324219 396.222656 349.324219 405.519531 349.324219 405.519531 C 349.324219 406.300781 349.953125 406.941406 350.746094 406.941406 C 350.746094 406.941406 369.59375 406.941406 369.59375 406.941406 C 370.375 406.941406 371.015625 406.3125 371.015625 405.519531 C 371.015625 405.519531 371.015625 396.222656 371.015625 396.222656 C 371.015625 395.429688 370.386719 394.800781 369.605469 394.800781 Z M 369.605469 394.800781 "/>
<path fill-rule="nonzero" fill="rgb(72.158813%, 72.158813%, 72.158813%)" fill-opacity="1" d="M 308.1875 402.753906 C 304.679688 402.753906 301.820312 399.910156 301.820312 396.386719 C 301.820312 392.863281 304.679688 390.035156 308.1875 390.035156 C 308.828125 390.035156 309.460938 390.132812 310.050781 390.308594 C 309.03125 390.613281 308.289062 391.554688 308.289062 392.6875 C 308.289062 394.058594 309.394531 395.167969 310.765625 395.167969 C 312.140625 395.167969 313.246094 394.058594 313.246094 392.6875 C 313.246094 392.625 313.246094 392.574219 313.234375 392.511719 C 314.0625 393.59375 314.566406 394.941406 314.566406 396.398438 C 314.554688 399.910156 311.699219 402.753906 308.1875 402.753906 Z M 308.1875 387.328125 C 299.207031 387.328125 296.035156 395.203125 295.621094 396.398438 C 296.160156 397.570312 300.097656 405.472656 308.1875 405.472656 C 317.171875 405.472656 320.339844 397.59375 320.769531 396.398438 C 320.230469 395.253906 316.289062 387.328125 308.1875 387.328125 Z M 308.1875 387.328125 "/>
<path fill="none" stroke-width="23.040001" stroke-linecap="round" stroke-linejoin="round" stroke="rgb(72.158813%, 72.158813%, 72.158813%)" stroke-opacity="1" stroke-miterlimit="4" d="M -179.346317 177.956472 C -179.346317 177.956472 179.342799 -177.982498 179.342799 -177.982498 " transform="matrix(0.0655272, 0, 0, 0.0655287, 308.263787, 396.022337)"/>
<path fill="none" stroke-width="36.48" stroke-linecap="butt" stroke-linejoin="round" stroke="rgb(72.158813%, 72.158813%, 72.158813%)" stroke-opacity="1" stroke-miterlimit="4" d="M -66.682433 -129.603921 C -66.682433 -129.603921 66.670991 -0.00899152 66.670991 -0.00899152 C 66.670991 -0.00899152 -66.682433 129.645549 -66.682433 129.645549 " transform="matrix(0.0655272, 0, 0, 0.0655287, 414.389047, 397.129495)"/>
<path fill="none" stroke-width="36.48" stroke-linecap="butt" stroke-linejoin="round" stroke="rgb(72.158813%, 72.158813%, 72.158813%)" stroke-opacity="1" stroke-miterlimit="4" d="M 414.012092 208.502317 C 414.012092 208.502317 121.016079 208.502317 121.016079 208.502317 " transform="matrix(0.0655272, 0, 0, 0.0655287, 391.277182, 383.46602)"/>
<path fill="none" stroke-width="19.200001" stroke-linecap="butt" stroke-linejoin="round" stroke="rgb(72.158813%, 72.158813%, 72.158813%)" stroke-opacity="1" stroke-miterlimit="4" d="M 495.621764 339.289472 C 495.621764 339.289472 495.621764 73.90004 495.621764 73.90004 " transform="matrix(0.0655272, 0, 0, 0.0655287, 391.277182, 383.46602)"/>
<path fill="none" stroke-width="24.959999" stroke-linecap="butt" stroke-linejoin="miter" stroke="rgb(0%, 0%, 0%)" stroke-opacity="1" stroke-miterlimit="10" d="M -49.90407 -49.906605 C -49.90407 -49.906605 49.947063 -49.906605 49.947063 -49.906605 C 49.947063 -49.906605 49.947063 49.942294 49.947063 49.942294 C 49.947063 49.942294 -49.90407 49.942294 -49.90407 49.942294 C -49.90407 49.942294 -49.90407 -49.906605 -49.90407 -49.906605 Z M -49.90407 -49.906605 " transform="matrix(0.0655272, 0, 0, 0.0655287, 456.008357, 396.676565)"/>
<path fill="none" stroke-width="24.959999" stroke-linecap="butt" stroke-linejoin="miter" stroke="rgb(0%, 0%, 0%)" stroke-opacity="1" stroke-miterlimit="10" d="M -49.941187 -49.916168 C -49.941187 -49.916168 49.909946 -49.916168 49.909946 -49.916168 C 49.909946 -49.916168 49.909946 49.932731 49.909946 49.932731 C 49.909946 49.932731 -49.941187 49.932731 -49.941187 49.932731 C -49.941187 49.932731 -49.941187 -49.916168 -49.941187 -49.916168 Z M -49.941187 -49.916168 " transform="matrix(0.0655272, 0, 0, 0.0655287, 469.09282, 390.134223)"/>
<path fill="none" stroke-width="24.959999" stroke-linecap="butt" stroke-linejoin="miter" stroke="rgb(0%, 0%, 0%)" stroke-opacity="1" stroke-miterlimit="10" d="M -49.90407 -49.897958 C -49.90407 -49.897958 49.947063 -49.897958 49.947063 -49.897958 C 49.947063 -49.897958 49.947063 49.891329 49.947063 49.891329 C 49.947063 49.891329 -49.90407 49.891329 -49.90407 49.891329 C -49.90407 49.891329 -49.90407 -49.897958 -49.90407 -49.897958 Z M -49.90407 -49.897958 " transform="matrix(0.0655272, 0, 0, 0.0655287, 456.008357, 403.218967)"/>
<path fill="none" stroke-width="24.959999" stroke-linecap="butt" stroke-linejoin="miter" stroke="rgb(0%, 0%, 0%)" stroke-opacity="1" stroke-miterlimit="10" d="M -49.90407 -49.916168 C -49.90407 -49.916168 49.947063 -49.916168 49.947063 -49.916168 C 49.947063 -49.916168 49.947063 49.932731 49.947063 49.932731 C 49.947063 49.932731 -49.90407 49.932731 -49.90407 49.932731 C -49.90407 49.932731 -49.90407 -49.916168 -49.90407 -49.916168 Z M -49.90407 -49.916168 " transform="matrix(0.0655272, 0, 0, 0.0655287, 456.008357, 390.134223)"/>
<path fill="none" stroke-width="24.959999" stroke-linecap="butt" stroke-linejoin="miter" stroke="rgb(0%, 0%, 0%)" stroke-opacity="1" stroke-miterlimit="10" d="M -49.892822 -49.916168 C -49.892822 -49.916168 49.898698 -49.916168 49.898698 -49.916168 C 49.898698 -49.916168 49.898698 49.932731 49.898698 49.932731 C 49.898698 49.932731 -49.892822 49.932731 -49.892822 49.932731 C -49.892822 49.932731 -49.892822 -49.916168 -49.892822 -49.916168 Z M -49.892822 -49.916168 " transform="matrix(0.0655272, 0, 0, 0.0655287, 462.550589, 390.134223)"/>
<path fill-rule="nonzero" fill="rgb(0%, 0%, 0%)" fill-opacity="1" d="M 512.035156 393.84375 C 512.035156 393.84375 518.738281 393.84375 518.738281 393.84375 C 518.738281 393.84375 518.738281 400.546875 518.738281 400.546875 C 518.738281 400.546875 512.035156 400.546875 512.035156 400.546875 C 512.035156 400.546875 512.035156 393.84375 512.035156 393.84375 Z M 512.035156 393.84375 "/>
<path fill-rule="nonzero" fill="rgb(0%, 0%, 0%)" fill-opacity="1" d="M 518.738281 387.140625 C 518.738281 387.140625 525.441406 387.140625 525.441406 387.140625 C 525.441406 387.140625 525.441406 393.84375 525.441406 393.84375 C 525.441406 393.84375 518.738281 393.84375 518.738281 393.84375 C 518.738281 393.84375 518.738281 387.140625 518.738281 387.140625 Z M 518.738281 387.140625 "/>
<path fill-rule="nonzero" fill="rgb(0%, 0%, 0%)" fill-opacity="1" d="M 505.332031 400.546875 C 505.332031 400.546875 512.035156 400.546875 512.035156 400.546875 C 512.035156 400.546875 512.035156 407.25 512.035156 407.25 C 512.035156 407.25 505.332031 407.25 505.332031 407.25 C 505.332031 407.25 505.332031 400.546875 505.332031 400.546875 Z M 505.332031 400.546875 "/>
<path fill-rule="nonzero" fill="rgb(0%, 0%, 0%)" fill-opacity="1" d="M 518.738281 400.546875 C 518.738281 400.546875 525.441406 400.546875 525.441406 400.546875 C 525.441406 400.546875 525.441406 407.25 525.441406 407.25 C 525.441406 407.25 518.738281 407.25 518.738281 407.25 C 518.738281 407.25 518.738281 400.546875 518.738281 400.546875 Z M 518.738281 400.546875 "/>
<path fill-rule="nonzero" fill="rgb(0%, 0%, 0%)" fill-opacity="1" d="M 505.332031 387.140625 C 505.332031 387.140625 512.035156 387.140625 512.035156 387.140625 C 512.035156 387.140625 512.035156 393.84375 512.035156 393.84375 C 512.035156 393.84375 505.332031 393.84375 505.332031 393.84375 C 505.332031 393.84375 505.332031 387.140625 505.332031 387.140625 Z M 505.332031 387.140625 "/>
<path fill-rule="nonzero" fill="rgb(72.158813%, 72.158813%, 72.158813%)" fill-opacity="1" d="M 561.445312 388.425781 C 561.445312 388.425781 566.242188 388.425781 566.242188 388.425781 C 566.242188 388.425781 566.242188 387.980469 566.242188 387.980469 C 566.242188 387.964844 566.242188 387.949219 566.242188 387.9375 C 566.25 387.695312 566.347656 387.46875 566.511719 387.296875 C 566.683594 387.121094 566.914062 387.023438 567.152344 387.019531 C 567.152344 387.019531 570.105469 387.019531 570.105469 387.019531 C 570.105469 387.019531 570.148438 387.019531 570.148438 387.019531 C 570.636719 387.046875 571.019531 387.46875 571.019531 387.980469 C 571.019531 387.980469 571.019531 388.425781 571.019531 388.425781 C 571.019531 388.425781 575.894531 388.425781 575.894531 388.425781 C 575.894531 388.425781 575.957031 388.425781 575.957031 388.425781 C 576.3125 388.457031 576.59375 388.757812 576.613281 389.132812 C 576.613281 389.164062 576.613281 389.183594 576.613281 389.214844 C 576.613281 389.214844 576.613281 390.789062 576.613281 390.789062 C 576.613281 391.015625 576.433594 391.203125 576.21875 391.203125 C 576.21875 391.203125 560.980469 391.203125 560.980469 391.203125 C 560.761719 391.203125 560.585938 391.019531 560.585938 390.792969 C 560.585938 390.792969 560.585938 389.183594 560.585938 389.183594 C 560.582031 389.164062 560.582031 389.148438 560.585938 389.132812 C 560.605469 388.785156 560.851562 388.5 561.175781 388.441406 C 561.265625 388.425781 561.355469 388.421875 561.445312 388.425781 Z M 563.464844 396.234375 C 563.464844 395.753906 563.835938 395.367188 564.292969 395.367188 C 564.292969 395.367188 564.296875 395.367188 564.300781 395.367188 C 564.761719 395.320312 565.175781 395.671875 565.226562 396.15625 C 565.226562 396.15625 565.597656 403.355469 565.597656 403.355469 C 565.597656 403.835938 565.226562 404.222656 564.769531 404.222656 C 564.765625 404.222656 564.765625 404.222656 564.761719 404.222656 C 564.296875 404.269531 563.882812 403.917969 563.832031 403.433594 C 563.832031 403.433594 563.460938 396.234375 563.460938 396.234375 C 563.460938 396.234375 563.464844 396.234375 563.464844 396.234375 Z M 572.09375 396.15625 C 572.144531 395.671875 572.558594 395.320312 573.023438 395.367188 C 573.480469 395.363281 573.855469 395.75 573.859375 396.230469 C 573.859375 396.230469 573.859375 396.234375 573.859375 396.234375 C 573.859375 396.234375 573.488281 403.433594 573.488281 403.433594 C 573.441406 403.917969 573.027344 404.269531 572.5625 404.222656 C 572.101562 404.226562 571.726562 403.839844 571.722656 403.359375 C 571.722656 403.359375 571.722656 403.355469 571.722656 403.355469 C 571.722656 403.355469 572.09375 396.15625 572.09375 396.15625 Z M 567.6875 396.195312 C 567.738281 395.6875 568.171875 395.316406 568.660156 395.367188 C 569.074219 395.414062 569.40625 395.757812 569.449219 396.195312 C 569.449219 396.195312 569.449219 403.394531 569.449219 403.394531 C 569.398438 403.902344 568.964844 404.273438 568.476562 404.222656 C 568.058594 404.175781 567.730469 403.832031 567.6875 403.394531 C 567.6875 403.394531 567.6875 396.195312 567.6875 396.195312 Z M 562.285156 393.796875 C 562.285156 393.796875 575.011719 393.796875 575.011719 393.796875 C 575.113281 393.792969 575.214844 393.800781 575.316406 393.820312 C 575.480469 393.859375 575.632812 393.945312 575.753906 394.070312 C 575.894531 394.210938 575.984375 394.398438 576.003906 394.601562 C 576.007812 394.679688 576.003906 394.757812 575.996094 394.832031 C 575.996094 394.832031 574.914062 405.75 574.914062 405.75 C 574.914062 405.75 574.914062 405.773438 574.914062 405.773438 C 574.914062 405.773438 574.914062 405.816406 574.914062 405.816406 C 574.90625 405.863281 574.894531 405.914062 574.882812 405.960938 C 574.882812 405.960938 574.882812 405.96875 574.882812 405.96875 C 574.761719 406.347656 574.429688 406.609375 574.046875 406.617188 C 574.046875 406.617188 563.222656 406.617188 563.222656 406.617188 C 563.160156 406.617188 563.097656 406.605469 563.03125 406.589844 C 562.972656 406.570312 562.914062 406.542969 562.855469 406.511719 C 562.585938 406.347656 562.410156 406.058594 562.386719 405.730469 C 562.386719 405.730469 561.320312 394.839844 561.320312 394.839844 C 561.308594 394.753906 561.304688 394.664062 561.3125 394.578125 C 561.332031 394.375 561.421875 394.191406 561.558594 394.050781 C 561.683594 393.921875 561.84375 393.835938 562.015625 393.800781 C 562.105469 393.78125 562.199219 393.777344 562.289062 393.777344 C 562.289062 393.777344 562.285156 393.796875 562.285156 393.796875 Z M 562.285156 393.796875 "/>
<path fill="none" stroke-width="42.240002" stroke-linecap="butt" stroke-linejoin="miter" stroke="rgb(72.549438%, 72.549438%, 72.549438%)" stroke-opacity="1" stroke-miterlimit="10" d="M 320.319733 383.994147 C 320.319733 383.994147 320.319733 21.11773 320.319733 21.11773 " transform="matrix(0.0475896, 0, 0, 0.0475907, 489.59986, 447.405149)"/>
<path fill="none" stroke-width="42.240002" stroke-linecap="butt" stroke-linejoin="miter" stroke="rgb(72.549438%, 72.549438%, 72.549438%)" stroke-opacity="1" stroke-miterlimit="10" d="M 136.127733 202.596979 C 136.127733 202.596979 504.429651 202.596979 504.429651 202.596979 " transform="matrix(0.0475896, 0, 0, 0.0475907, 489.59986, 447.405149)"/>
<path fill="none" stroke-width="42.240002" stroke-linecap="butt" stroke-linejoin="miter" stroke="rgb(72.549438%, 72.549438%, 72.549438%)" stroke-opacity="1" stroke-miterlimit="10" d="M 80.078869 160.148871 C 80.078869 160.148871 -80.063105 0.0104655 -80.063105 0.0104655 C -80.063105 0.0104655 80.078869 -160.12794 80.078869 -160.12794 " transform="matrix(0.0475896, 0, 0, 0.0475907, 350.997672, 457.483877)"/>
<path fill="none" stroke-width="42.240002" stroke-linecap="butt" stroke-linejoin="miter" stroke="rgb(72.549438%, 72.549438%, 72.549438%)" stroke-opacity="1" stroke-miterlimit="10" d="M 158.861985 209.866555 C 158.861985 209.866555 508.285043 209.866555 508.285043 209.866555 " transform="matrix(0.0475896, 0, 0, 0.0475907, 339.967164, 447.496685)"/>
<path fill="none" stroke-width="42.240002" stroke-linecap="butt" stroke-linejoin="miter" stroke="rgb(72.158813%, 72.158813%, 72.158813%)" stroke-opacity="1" stroke-miterlimit="10" d="M -80.063924 -160.12794 C -80.063924 -160.12794 80.078051 0.0104655 80.078051 0.0104655 C 80.078051 0.0104655 -80.063924 160.148871 -80.063924 160.148871 " transform="matrix(0.0475896, 0, 0, 0.0475907, 310.927398, 457.483877)"/>
<path fill="none" stroke-width="42.240002" stroke-linecap="butt" stroke-linejoin="miter" stroke="rgb(72.158813%, 72.158813%, 72.158813%)" stroke-opacity="1" stroke-miterlimit="10" d="M 470.662935 209.866555 C 470.662935 209.866555 120.993631 209.866555 120.993631 209.866555 " transform="matrix(0.0475896, 0, 0, 0.0475907, 292.011492, 447.496685)"/>
<path fill="none" stroke-width="42.240002" stroke-linecap="butt" stroke-linejoin="miter" stroke="rgb(72.549438%, 72.549438%, 72.549438%)" stroke-opacity="1" stroke-miterlimit="10" d="M 160.211461 -80.124454 C 160.211461 -80.124454 0.0694864 80.178112 0.0694864 80.178112 C 0.0694864 80.178112 -160.236653 -80.124454 -160.236653 -80.124454 " transform="matrix(0.0475896, 0, 0, 0.0475907, 403.902943, 460.695989)"/>
<path fill="none" stroke-width="42.240002" stroke-linecap="butt" stroke-linejoin="miter" stroke="rgb(72.549438%, 72.549438%, 72.549438%)" stroke-opacity="1" stroke-miterlimit="10" d="M 312.781814 346.541501 C 312.781814 346.541501 312.781814 12.311062 312.781814 12.311062 " transform="matrix(0.0475896, 0, 0, 0.0475907, 389.021086, 447.679733)"/>
<path fill="none" stroke-width="42.240002" stroke-linecap="butt" stroke-linejoin="miter" stroke="rgb(72.549438%, 72.549438%, 72.549438%)" stroke-opacity="1" stroke-miterlimit="10" d="M -160.208553 80.043562 C -160.208553 80.043562 0.097586 -80.094844 0.097586 -80.094844 C 0.097586 -80.094844 160.239561 80.043562 160.239561 80.043562 " transform="matrix(0.0475896, 0, 0, 0.0475907, 451.858637, 452.530517)"/>
<path fill="none" stroke-width="42.240002" stroke-linecap="butt" stroke-linejoin="miter" stroke="rgb(72.549438%, 72.549438%, 72.549438%)" stroke-opacity="1" stroke-miterlimit="10" d="M 312.810216 44.358536 C 312.810216 44.358536 312.810216 394.020046 312.810216 394.020046 " transform="matrix(0.0475896, 0, 0, 0.0475907, 436.976766, 446.947541)"/>
<path fill="none" stroke-width="42.240002" stroke-linecap="butt" stroke-linejoin="round" stroke="rgb(72.158813%, 72.158813%, 72.158813%)" stroke-opacity="1" stroke-miterlimit="4" d="M 124.135584 -71.490716 C 124.135584 -71.490716 0.0276059 71.492935 0.0276059 71.492935 C 0.0276059 71.492935 -124.162455 -71.490716 -124.162455 -71.490716 " transform="matrix(0.0475896, 0, 0, 0.0475907, 330.061186, 335.781197)"/>
<path fill="none" stroke-width="42.240002" stroke-linecap="butt" stroke-linejoin="round" stroke="rgb(72.158813%, 72.158813%, 72.158813%)" stroke-opacity="1" stroke-miterlimit="4" d="M 313.027139 277.363515 C 313.027139 277.363515 313.027139 -36.921443 313.027139 -36.921443 " transform="matrix(0.0475896, 0, 0, 0.0475907, 315.165661, 326.323522)"/>
<path fill="none" stroke-width="46.080002" stroke-linecap="butt" stroke-linejoin="round" stroke="rgb(72.158813%, 72.158813%, 72.158813%)" stroke-opacity="1" stroke-miterlimit="4" d="M -162.330583 -34.85998 C -162.330583 -34.85998 -162.330583 34.826081 -162.330583 34.826081 C -162.330583 34.826081 162.303713 34.826081 162.303713 34.826081 C 162.303713 34.826081 162.303713 -34.85998 162.303713 -34.85998 " transform="matrix(0.0475896, 0, 0, 0.0475907, 330.061186, 341.78401)"/>
<path fill="none" stroke-width="42.240002" stroke-linecap="butt" stroke-linejoin="round" stroke="rgb(72.158813%, 72.158813%, 72.158813%)" stroke-opacity="1" stroke-miterlimit="4" d="M 144.440413 197.218819 C 144.440413 197.218819 481.633254 197.218819 481.633254 197.218819 " transform="matrix(0.0475896, 0, 0, 0.0475907, 410.024575, 325.774381)"/>
<path fill="none" stroke-width="42.240002" stroke-linecap="butt" stroke-linejoin="round" stroke="rgb(72.158813%, 72.158813%, 72.158813%)" stroke-opacity="1" stroke-miterlimit="4" d="M 313.036834 28.626157 C 313.036834 28.626157 313.036834 365.811482 313.036834 365.811482 " transform="matrix(0.0475896, 0, 0, 0.0475907, 410.024575, 325.774381)"/>
<path fill="none" stroke-width="35.200001" stroke-linecap="butt" stroke-linejoin="miter" stroke="rgb(72.158813%, 72.158813%, 72.158813%)" stroke-opacity="1" stroke-miterlimit="10" d="M 486.114645 374.413557 C 486.114645 374.413557 486.114645 10.059697 486.114645 10.059697 " transform="matrix(0.0475896, 0, 0, 0.0475907, 152.354276, 448.411877)"/>
<path fill="none" stroke-width="35.200001" stroke-linecap="butt" stroke-linejoin="miter" stroke="rgb(72.158813%, 72.158813%, 72.158813%)" stroke-opacity="1" stroke-miterlimit="10" d="M 156.719593 375.234358 C 156.719593 375.234358 156.719593 10.059697 156.719593 10.059697 " transform="matrix(0.0475896, 0, 0, 0.0475907, 152.354276, 448.411877)"/>
<path fill="none" stroke-width="35.200001" stroke-linecap="butt" stroke-linejoin="miter" stroke="rgb(72.158813%, 72.158813%, 72.158813%)" stroke-opacity="1" stroke-miterlimit="10" d="M 320.965668 356.52008 C 320.965668 356.52008 320.965668 45.107928 320.965668 45.107928 " transform="matrix(0.0475896, 0, 0, 0.0475907, 152.354276, 448.411877)"/>
<path fill="none" stroke-width="35.200001" stroke-linecap="butt" stroke-linejoin="miter" stroke="rgb(72.158813%, 72.158813%, 72.158813%)" stroke-opacity="1" stroke-miterlimit="10" d="M 157.786659 192.031426 C 157.786659 192.031426 481.025561 192.031426 481.025561 192.031426 " transform="matrix(0.0475896, 0, 0, 0.0475907, 152.354276, 448.411877)"/>
<path fill="none" stroke-width="35.200001" stroke-linecap="butt" stroke-linejoin="miter" stroke="rgb(72.158813%, 72.158813%, 72.158813%)" stroke-opacity="1" stroke-miterlimit="10" d="M 172.807665 27.706932 C 172.807665 27.706932 475.526067 27.706932 475.526067 27.706932 " transform="matrix(0.0475896, 0, 0, 0.0475907, 152.354276, 448.411877)"/>
<path fill="none" stroke-width="35.200001" stroke-linecap="butt" stroke-linejoin="miter" stroke="rgb(72.158813%, 72.158813%, 72.158813%)" stroke-opacity="1" stroke-miterlimit="10" d="M 166.405269 356.766321 C 166.405269 356.766321 478.481019 356.766321 478.481019 356.766321 " transform="matrix(0.0475896, 0, 0, 0.0475907, 152.354276, 448.411877)"/>
<path fill="none" stroke-width="42.240002" stroke-linecap="butt" stroke-linejoin="round" stroke="rgb(72.158813%, 72.158813%, 72.158813%)" stroke-opacity="1" stroke-miterlimit="4" d="M 144.409692 197.206302 C 144.409692 197.206302 481.602533 197.206302 481.602533 197.206302 " transform="matrix(0.0475896, 0, 0, 0.0475907, 458.026037, 326.872633)"/>
</svg>
