<?xml version="1.0" encoding="UTF-8"?>
<svg id="Ebene_1" data-name="Ebene 1" xmlns="http://www.w3.org/2000/svg" viewBox="0 0 274.71 82.65">
  <defs>
    <style>
      .cls-1 {
        fill: #1d1d1b;
      }
    </style>
  </defs>
  <path class="cls-1" d="M252.6,35.05v-2.52c-11.81-.88-24.75-8.04-24.75-32.53h13.44c0,28.51,21.61,34.79,33.41,34.79v13.06c-11.81,0-33.41,6.28-33.41,34.79h-13.44c0-24.5,12.94-31.65,24.75-32.53v-2.51h-68.92c-5.97,0-11.83-1.61-16.96-4.66l-12.79-7.6c-10.28-6.11-23.01-6.36-33.53-.67l-8.38,4.53c-9.69,5.25-21.36,5.34-31.14.25l-15.94-8.29c-9.57-4.98-20.94-5.12-30.63-.37L0,47.61v-12.56l34-16.76c9.67-4.77,21.04-4.66,30.62.29l16.29,8.42c9.76,5.04,21.39,4.93,31.05-.3l8.39-4.54c10.54-5.7,23.3-5.44,33.59.7l12.58,7.51c5.15,3.07,11.03,4.69,17.02,4.69h69.05Z"/>
</svg>