<?xml version="1.0" encoding="UTF-8"?>
<svg id="Ebene_1" xmlns="http://www.w3.org/2000/svg" version="1.1" viewBox="0 0 1000 1000">
  <!-- Generator: Adobe Illustrator 29.0.0, SVG Export Plug-In . SVG Version: 2.1.0 Build 186)  -->
  <defs>
    <style>
      .st0 {
        fill: #fff;
      }
    </style>
  </defs>
  <path d="M552.2,733c-20.2,0-39.6-7.6-54.6-21.4l-.3-.3-.3.3c-15.1,13.8-34.5,21.4-54.6,21.4-17.4,0-34.8-5.7-48.8-16-14.9-11-25.3-26.4-30.1-44.6v-.4c-.1,0-.6,0-.6,0-4.7.8-9.5,1.2-14.2,1.2h0c-25.7,0-50.1-12.6-65.4-33.6-15.4-21.2-19.6-47.7-11.5-72.8v-.4c.1,0-.3-.2-.3-.2-26.5-11.2-44.7-34.8-48.8-63.3s6.7-56.3,29-74.5l.4-.3-.3-.4c-16.2-23.7-18.8-53.5-6.8-79.6,11.9-26.1,36.1-43.7,64.6-47h.5c0,0,0-.5,0-.5-.6-22.2,7.4-43,22.7-58.8,15.4-15.8,36.7-24.9,58.5-24.9s24.4,2.8,35.8,8.4l.4.2.2-.4c14.8-24.6,40.9-39.3,69.6-39.3s54.7,14.7,69.6,39.3l.2.4.4-.2c11.4-5.6,23.5-8.4,35.8-8.4,21.8,0,43.1,9.1,58.5,24.9,15.3,15.7,23.4,36.6,22.7,58.8v.5s.4,0,.4,0c28.5,3.3,52.7,20.8,64.6,47,11.9,26.1,9.4,55.9-6.8,79.6l-.3.4.4.3c22.2,18.2,33.1,46,29,74.5-4.1,28.4-22.3,52.1-48.8,63.3l-.4.2v.4c8.3,25,4.1,51.6-11.3,72.8-15.3,21.1-39.8,33.6-65.4,33.6s-9.5-.4-14.2-1.2h-.5c0,0-.1.4-.1.4-4.8,18.2-15.2,33.7-30.1,44.6-14,10.3-31.3,16-48.8,16Z"/>
  <path class="st0" d="M497.3,186.5c28.6,0,54.4,14.6,69.2,39l.5.8.8-.4c11.3-5.6,23.3-8.4,35.6-8.4,21.7,0,42.9,9,58.1,24.8,15.2,15.6,23.2,36.4,22.6,58.4v.9s.9.1.9.1c28.4,3.3,52.4,20.7,64.2,46.7,11.9,26,9.3,55.5-6.8,79.1l-.5.8.7.6c22.1,18.1,32.9,45.7,28.8,74-4.1,28.3-22.2,51.8-48.5,62.9l-.8.4.3.9c8.1,24.9,3.9,51.2-11.4,72.3-7.3,10.1-17,18.5-27.9,24.2-11.5,6.1-24,9.2-37.1,9.2s-9.4-.4-14.1-1.2l-.9-.2-.2.9c-4.8,18.1-15.1,33.5-29.9,44.4-13.9,10.3-31.1,15.9-48.5,15.9s-39.3-7.6-54.3-21.3l-.7-.6-.7.6c-15,13.7-34.3,21.3-54.3,21.3s-34.6-5.6-48.5-15.9c-14.8-10.9-25.2-26.3-29.9-44.4l-.2-.9-.9.2c-4.7.8-9.5,1.2-14.1,1.2-13.1,0-25.6-3.1-37.1-9.2-10.9-5.8-20.6-14.2-27.9-24.2-15.3-21.1-19.5-47.4-11.4-72.3l.3-.9-.8-.4c-26.3-11.1-44.4-34.6-48.5-62.9s6.7-55.9,28.8-74l.7-.6-.5-.8c-16.1-23.6-18.6-53.2-6.8-79.1,11.9-26,35.9-43.4,64.2-46.7h.9c0-.1,0-1,0-1-.6-22,7.4-42.8,22.6-58.4,15.3-15.7,36.5-24.8,58.1-24.8s24.3,2.8,35.6,8.4l.8.4.5-.8c14.8-24.4,40.6-39,69.2-39M497.3,185.5c-27.1,0-54.1,13.2-70,39.5h0s0,0,0,0c-11.8-5.8-24.1-8.5-36-8.5-43.7,0-83.1,35.9-81.7,84.2h0s0,0,0,0c-61.1,7-92.9,76.5-58.2,127.4h0s0,0,0,0c-47.6,39-36.8,114.6,19.9,138.6h0,0c-17.5,53.9,23.5,107.1,77.4,107.1s9.5-.4,14.3-1.2h0c10.1,38.4,44.2,61,79.4,61s38.9-6.8,55-21.6h0c16.1,14.8,35.7,21.6,55,21.6,35.1,0,69.3-22.6,79.4-61h0s0,0,0,0c4.8.8,9.6,1.2,14.3,1.2,53.9,0,94.9-53.2,77.4-107.1h0s0,0,0,0c56.7-24,67.6-99.6,19.9-138.6h0s0,0,0,0c34.7-50.8,3-120.3-58.2-127.4h0c1.4-48.3-38-84.2-81.7-84.2s-24.2,2.7-36,8.5h0s0,0,0,0c-15.9-26.3-43-39.5-70-39.5h0Z"/>
</svg>